<?xml version="1.0" encoding="iso-8859-1"?>
<!-- Generator: Adobe Illustrator 19.0.0, SVG Export Plug-In . SVG Version: 6.00 Build 0)  -->
<svg version="1.1" id="Capa_1" xmlns="http://www.w3.org/2000/svg" xmlns:xlink="http://www.w3.org/1999/xlink" x="0px" y="0px"
	 viewBox="0 0 477.867 477.867" style="enable-background:new 0 0 477.867 477.867;" xml:space="preserve">
<g>
	<g>
		<path d="M409.6,170.667h-17.067V153.6C392.439,68.808,323.725,0.094,238.933,0c-84.792,0.094-153.506,68.808-153.6,153.6v17.067
			H68.267c-9.426,0-17.067,7.641-17.067,17.067V460.8c0,9.426,7.641,17.067,17.067,17.067H409.6c9.426,0,17.067-7.641,17.067-17.067
			V187.733C426.667,178.308,419.026,170.667,409.6,170.667z M119.467,153.6c0-65.98,53.487-119.467,119.467-119.467
			S358.4,87.62,358.4,153.6v17.067H119.467V153.6z M392.533,443.733h-307.2V204.8h307.2V443.733z"/>
	</g>
</g>
<g>
	<g>
		<path d="M287.209,290.111c-7.211-20.472-26.571-34.152-48.276-34.111c-28.211-0.053-51.124,22.773-51.177,50.984
			c-0.041,21.705,13.639,41.065,34.111,48.276v37.274c0,9.426,7.641,17.067,17.067,17.067S256,401.959,256,392.533V355.26
			C282.609,345.888,296.582,316.719,287.209,290.111z M238.933,324.267c-9.426,0-17.067-7.641-17.067-17.067
			s7.641-17.067,17.067-17.067S256,297.774,256,307.2S248.359,324.267,238.933,324.267z"/>
	</g>
</g>
<g>
</g>
<g>
</g>
<g>
</g>
<g>
</g>
<g>
</g>
<g>
</g>
<g>
</g>
<g>
</g>
<g>
</g>
<g>
</g>
<g>
</g>
<g>
</g>
<g>
</g>
<g>
</g>
<g>
</g>
</svg>
