<?xml version="1.0" encoding="UTF-8" standalone="no"?>
<!DOCTYPE svg PUBLIC "-//W3C//DTD SVG 1.1//EN" "http://www.w3.org/Graphics/SVG/1.1/DTD/svg11.dtd">
<svg width="100%" height="100%" viewBox="0 0 1144 653" version="1.1" xmlns="http://www.w3.org/2000/svg" xmlns:xlink="http://www.w3.org/1999/xlink" xml:space="preserve" xmlns:serif="http://www.serif.com/" style="fill-rule:evenodd;clip-rule:evenodd;stroke-linejoin:round;stroke-miterlimit:2;">
    <g transform="matrix(1,0,0,1,-28,-123.74)">
        <path d="M715.72,594.05C737.82,592.79 765.24,577.8 786.56,571.17C811.793,563.343 837.127,555.813 862.56,548.58C951.1,523.387 1040.59,501.92 1131.03,484.18C1139.47,482.52 1147.92,480.9 1156.39,479.32C1143.2,450.824 1122.77,426.28 1097.13,408.15C1097.79,401.911 1098.12,395.643 1098.13,389.37C1098.13,290.23 1018.9,209.86 921.13,209.86C891.031,209.828 861.432,217.598 835.23,232.41C766.03,186.89 675.71,159.34 576.89,159.34C436.47,159.34 313.2,214.97 243.35,298.74L571.63,354.2L772.97,388.2C543.44,395.05 313.2,401.86 84.33,385.78C22.264,445.834 11.262,542.291 58.21,614.78C58.21,618.37 58.36,621.93 58.63,625.46C64.46,627.13 70.09,628.75 75.14,629.81C156.213,646.937 237.807,661.27 319.92,672.81C259.41,710.12 185.72,715.4 115.92,731.2C149.72,759.1 195.62,776.2 246.2,776.2L999.32,776.2C1080.87,776.2 1146.97,719.43 1146.97,649.39C1159.21,629.211 1167.36,606.823 1170.97,583.5C1020.07,598.07 867.29,585.42 715.72,594.05Z" style="fill:rgb(108,99,255);fill-opacity:0.1;fill-rule:nonzero;"/>
    </g>
    <g transform="matrix(1,0,0,1,-28,-123.74)">
        <path d="M1172,553.67C1172.16,495.141 1143.77,440.067 1096,406.25C1096.65,400.014 1096.99,393.75 1097,387.48C1097,288.34 1017.73,208 920,208C889.899,207.968 860.298,215.734 834.09,230.54C764.89,185 674.56,157.44 575.74,157.44C415,157.44 276.64,230.39 215.28,335C211.87,334.8 208.44,334.69 204.98,334.69C107.24,334.69 27.98,415.06 27.98,514.2C27.911,549.214 38.031,583.504 57.1,612.87C57.1,702.07 141.29,774.38 245.1,774.38L998.24,774.38C1079.78,774.38 1145.88,717.6 1145.88,647.56C1163.03,619.252 1172.07,586.767 1172,553.67Z" style="fill:rgb(242,63,113);fill-opacity:0.1;fill-rule:nonzero;"/>
    </g>
    <g transform="matrix(1,0,0,1,-28,-123.74)">
        <path d="M962.28,443.69C960.85,442.592 959.176,441.858 957.4,441.55C955.53,441.12 953.62,440.85 951.72,440.55L927.1,437C924.615,436.539 922.08,436.404 919.56,436.6C917.007,436.809 914.643,438.035 913,440C912.266,440.905 911.864,442.035 911.86,443.2C911.997,444.373 912.379,445.504 912.98,446.52C913.218,446.995 913.422,447.486 913.59,447.99C913.826,449.121 914.119,450.239 914.47,451.34C914.579,451.578 914.72,451.8 914.89,452C914.894,452.057 914.894,452.113 914.89,452.17C914.62,453.55 915.49,454.99 915.1,456.32C914.76,457.46 913.65,458.15 912.95,459.1C911.997,460.475 911.958,462.295 912.85,463.71C913.6,464.87 914.96,465.66 915.35,466.99C915.86,468.74 914.48,470.43 913.25,471.78C910.987,474.265 908.896,476.901 906.99,479.67C906.454,480.351 906.109,481.162 905.99,482.02C905.88,483.76 907.55,485.29 907.26,487.02C907.03,488.38 905.7,489.21 904.55,490.02C900.3,492.82 896.89,497.32 896.55,502.41C895.459,494.312 892.103,486.685 886.87,480.41C885.44,478.69 883.87,476.96 883.28,474.78C883.06,473.91 883.02,472.98 882.72,472.14C881.72,469.49 878.54,468.35 877.15,465.91C876.15,464.19 876.15,461.98 874.91,460.47C873.67,458.96 871.72,458.62 870.65,457.16C870.116,456.171 869.661,455.141 869.29,454.08C868.841,453.215 868.21,452.457 867.44,451.86C867.293,451.742 867.139,451.632 866.98,451.53C867.316,451.23 867.509,450.8 867.51,450.35C867.51,449.18 866.35,448.41 865.34,447.83C864.04,447.09 862.77,446.29 861.53,445.46C862.882,444.83 864.055,443.871 864.94,442.67C866.05,440.879 866.509,438.76 866.24,436.67C866.172,434.984 865.542,433.367 864.45,432.08C863.82,431.41 863.03,430.93 862.37,430.3C860.66,428.63 860.08,426.16 859.37,423.88C858.43,420.88 856.96,417.73 854.22,416.14C852.9,415.37 851.36,415.01 850.07,414.2C848.78,413.39 847.7,411.86 848.15,410.39C848.45,409.39 849.38,408.7 850.01,407.85C851.565,405.577 850.994,402.431 848.74,400.85C848,400.38 847.09,399.97 846.94,399.11C845.761,398.804 844.857,397.845 844.62,396.65C844.395,395.474 844.395,394.266 844.62,393.09C844.88,391.23 845.137,389.377 845.39,387.53C846.279,387.9 847.281,387.9 848.17,387.53C849.035,388.934 850.04,390.248 851.17,391.45C854.215,395.046 856.587,399.162 858.17,403.6C858.74,405.2 859.32,406.99 860.8,407.84C861.31,408.13 861.89,408.28 862.39,408.59C863.007,409.02 863.536,409.563 863.95,410.19C865.15,411.78 866.35,413.36 867.54,414.95L867.6,415.19C867.632,415.331 867.686,415.466 867.76,415.59C867.981,415.839 868.288,415.996 868.62,416.03C872.3,416.88 876.43,417.66 879.62,415.65C882.5,413.85 883.76,410.29 886.2,407.91C887.93,406.22 890.38,404.91 890.87,402.53C890.286,402.35 889.712,402.14 889.15,401.9C889.65,401.4 890.15,400.82 890.83,400.16C891.818,399.193 892.709,398.131 893.49,396.99C894.334,395.582 895.006,394.078 895.49,392.51C897.417,387.017 899.35,381.52 901.29,376.02C902.21,373.42 903.13,370.8 904.29,368.27C905.49,365.53 906.91,362.9 908.22,360.21C911.601,353.214 914.21,345.871 916,338.31C916.317,337.278 916.423,336.193 916.31,335.12C916.03,333.39 914.72,332.03 913.47,330.8C912.213,329.439 910.781,328.252 909.21,327.27C907.618,326.28 905.693,325.97 903.87,326.41C901.31,327.16 899.7,329.78 899.11,332.41C898.52,335.04 898.74,337.75 898.49,340.41C898.13,344.26 896.81,347.98 896.49,351.84C896.32,354.07 896.49,356.33 896.22,358.56C895.728,361.478 894.711,364.284 893.22,366.84C889.977,372.937 885.586,378.349 880.29,382.78C879.68,383.29 879.05,383.78 878.45,384.33C878.45,383.9 878.52,383.46 878.58,383.03C878.145,383.143 877.72,383.294 877.31,383.48C877.36,382.975 877.309,382.465 877.16,381.98C876.36,379.59 872.8,378.98 872.16,376.55C872.053,375.949 871.997,375.34 871.99,374.73C871.78,372.6 870.33,370.8 869.83,368.73C869.37,366.82 869.72,364.73 868.83,362.96C868.072,361.853 867.178,360.845 866.17,359.96C864.968,358.588 864.102,356.954 863.64,355.19C863.51,354.7 863.39,354.19 863.25,353.7C863.402,352.59 863.278,351.46 862.89,350.41C861.98,348.15 859.63,346.7 858.78,344.41C858.12,342.63 858.41,340.41 857.16,339.03C856.496,338.371 855.683,337.88 854.79,337.6C850.214,335.818 845.41,334.683 840.52,334.23C837.78,333.98 834.76,333.84 832.8,331.91C830.51,329.67 830.4,325.64 827.72,323.91C825.36,322.38 822.02,323.51 820.19,325.66C819.915,325.976 819.661,326.31 819.43,326.66C819.096,325.32 819.025,323.927 819.22,322.56C819.22,322.22 819.29,321.87 819.32,321.56C823.834,320.085 827.678,317.049 830.16,313C832.642,308.951 830.16,313 830.16,313.06L830.28,313.37C830.57,314.1 831.03,314.8 831.71,314.88C832.162,314.875 832.6,314.716 832.95,314.43C833.553,314.011 834.11,313.528 834.61,312.99C834.863,312.71 835.103,312.42 835.33,312.12C835.791,311.496 836.186,310.825 836.51,310.12C837.007,309.059 837.344,307.93 837.51,306.77C837.69,305.61 837.71,304.42 837.91,303.26C838.097,302.362 838.341,301.477 838.64,300.61C838.74,300.32 838.84,300.03 838.93,299.74C839.02,299.45 839.15,299.06 839.25,298.74C839.876,296.683 840.212,294.549 840.25,292.4L840.25,291.32C840.176,288.487 838.965,285.8 836.89,283.87C835.17,282.46 832.89,281.87 831.63,279.96C830.81,278.68 830.63,277.03 830.15,275.53C829.093,271.874 826.037,269.125 822.29,268.46C820.075,268.217 817.849,268.829 816.07,270.17L815.93,270.28C814.938,271.037 814.097,271.973 813.45,273.04C812.129,272.676 810.919,271.989 809.93,271.04C808.93,270.11 808.16,268.94 807.15,268.04C805.23,266.282 802.496,265.706 800.03,266.54C797.499,267.554 795.603,269.725 794.94,272.37C794.39,274.43 794.49,276.8 793.34,278.52C792.45,279.86 790.99,280.52 789.97,281.74C789.336,282.512 788.903,283.43 788.71,284.41C788.589,284.958 788.532,285.519 788.54,286.08C788.54,286.33 788.54,286.58 788.6,286.82L788.6,286.94C788.635,287.214 788.692,287.485 788.77,287.75C789.054,288.764 789.564,289.7 790.26,290.49C790.92,291.246 791.745,291.841 792.67,292.23C793.049,292.377 793.436,292.501 793.83,292.6L795.02,292.87L795.44,292.97C792.532,298.431 792.324,304.945 794.88,310.58C794.88,310.86 794.81,311.14 794.78,311.42C794.617,315.358 794.791,319.302 795.3,323.21C795.44,324.76 795.52,326.47 794.57,327.7C794.137,328.184 793.651,328.617 793.12,328.99C793.66,328.29 794.21,327.6 794.77,326.91C793.36,325.49 791.13,325.31 789.13,325.45C785.259,325.739 781.501,326.887 778.13,328.81C775.89,330.1 773.59,331.81 771.03,331.51C769.52,331.34 768.03,330.51 766.56,330.91C765.734,331.248 764.962,331.706 764.27,332.27C763.723,332.662 763.063,332.866 762.39,332.85C760.82,330.92 758.39,329.61 756.51,328.04C754.37,326.135 752.412,324.036 750.66,321.77C747.42,317.86 744.19,313.94 741.01,309.99C738.33,306.67 735.58,303.08 735.11,298.83C735.062,298.408 735.039,297.984 735.04,297.56C735.105,295.541 735.36,293.532 735.8,291.56C735.919,291.084 735.919,290.586 735.8,290.11C735.5,289.11 734.35,288.74 733.36,288.52C733.49,287.75 733.58,286.96 733.63,286.21C734.19,277.61 733.58,268.87 735.4,260.45C736.09,257.21 737.22,253.93 739.55,251.58C743.2,247.89 749.31,247 752.11,242.63C754.45,238.99 753.52,233.84 750.58,230.63C747.64,227.42 743.11,226.11 738.8,226.27C737.591,226.228 736.396,226.549 735.37,227.19C734.411,228.042 733.693,229.132 733.29,230.35L729,240.78C727.756,243.495 726.707,246.296 725.86,249.16C724.66,253.54 724.39,258.16 723.44,262.58C723.44,265.98 721.25,270.22 720.05,273.35C718.71,276.87 717.26,280.35 716.05,283.94C715.75,284.84 714.7,287.51 714.05,289.94C713.804,290.083 713.576,290.254 713.37,290.45C712.848,291.119 712.373,291.824 711.95,292.56C711.04,293.76 709.56,294.4 708.56,295.56C707.56,296.72 707.35,298.85 708.74,299.43C709.022,299.525 709.314,299.589 709.61,299.62C709.792,299.635 709.973,299.665 710.15,299.71C711.65,300.13 712.24,302.02 712.02,303.58C711.8,305.14 711.02,306.58 710.89,308.14C710.62,310.9 712.24,313.47 713.8,315.79C715.415,318.305 717.199,320.707 719.14,322.98C720.55,324.56 722.14,325.98 723.56,327.5C728.97,333.06 733.27,339.56 738.13,345.6C739.878,347.88 741.866,349.965 744.06,351.82C745.492,352.94 746.992,353.972 748.55,354.91L756.91,360.21C757.858,360.905 758.931,361.411 760.07,361.7C760.442,361.75 760.818,361.75 761.19,361.7C761.24,361.95 761.28,362.19 761.34,362.44C761.99,365.06 763.42,367.44 763.58,370.11C763.74,372.78 763.5,375.51 763.69,378.21C763.87,380.7 764.42,383.21 764.56,385.66C764.84,390.38 763.68,395.04 762.56,399.66C760.87,406.42 759.85,413.32 756.56,419.45C755.64,421.14 754.56,422.86 754.56,424.79C754.56,425.02 754.56,425.26 754.62,425.49L753.12,426.34C752.68,426.59 752.24,426.84 751.84,427.1C749.94,428.34 747.91,429.71 747.13,431.85C746.5,433.58 746.79,435.56 746.03,437.24C745.994,437.315 745.954,437.389 745.91,437.46C745.11,439.02 743.52,440.18 743.16,441.89C742.89,443.2 743.41,444.59 743.16,445.89L743.16,445.94C742.932,446.593 742.752,447.261 742.62,447.94C742.609,448.162 742.629,448.384 742.68,448.6C742.871,449.358 743.29,450.038 743.88,450.55C744.24,450.896 744.632,451.207 745.05,451.48C745.477,451.76 745.917,452.02 746.37,452.26L746.63,452.4C747.01,452.6 747.39,452.79 747.78,452.97L748.04,453.08C748.49,453.28 748.95,453.46 749.41,453.62L749.73,453.72C750.09,453.84 750.46,453.95 750.83,454.04L751.08,454.12L751.31,454.17L752.31,454.38L752.68,454.45C753.12,454.523 753.57,454.583 754.03,454.63L754.43,454.63C754.77,454.63 755.1,454.68 755.43,454.69L757.26,454.69C757.73,454.69 758.2,454.62 758.67,454.56L758.82,454.56C759.24,454.5 759.66,454.43 760.08,454.34L760.4,454.27C760.79,454.18 761.18,454.09 761.57,453.97L761.78,453.91C762.25,453.77 762.72,453.62 763.18,453.44C764.772,452.786 766.316,452.021 767.8,451.15C768.8,450.6 769.8,450.04 770.8,449.53C771.542,449.156 772.303,448.822 773.08,448.53C774.971,447.722 777.029,447.379 779.08,447.53C780.092,447.668 781.094,447.872 782.08,448.14L782.08,448.47C782.893,453.27 783.697,458.07 784.49,462.87C785.799,461.928 787.184,461.095 788.63,460.38C788.36,461.105 788.181,461.861 788.1,462.63C788.04,463.225 788.04,463.825 788.1,464.42C788.19,465.37 788.39,466.42 787.82,467.17C787.47,467.63 786.82,467.89 786.63,468.41C786.491,468.942 786.457,469.495 786.53,470.04C786.446,471.319 785.427,472.354 784.15,472.46C784.737,474.111 784.11,475.965 782.64,476.92C782.222,477.121 781.832,477.377 781.48,477.68C781.138,478.122 780.908,478.64 780.81,479.19C779.489,484.142 776.77,488.61 772.98,492.06C771.558,493.177 770.26,494.445 769.11,495.84C768.399,496.921 767.812,498.078 767.36,499.29C764.693,505.81 761.987,512.333 759.24,518.86C757.72,522.51 756.24,526.22 755.76,530.15C754.56,540.93 744.96,550.07 746.76,560.77C747.124,563.443 748.202,565.968 749.88,568.08C751.88,570.49 754.88,571.87 757.88,572.99C765.59,575.99 773.72,577.63 781.82,579.28L794.54,581.89C797.036,582.464 799.569,582.865 802.12,583.09C805.19,583.3 808.34,583.01 811.33,583.79C813.18,584.27 814.95,585.16 816.86,585.26C818.5,585.35 820.52,585 821.49,586.34C822.46,587.68 821.71,589.45 822.63,590.64C824.11,592.53 827.72,590.64 829.33,592.42C829.77,593.104 830.107,593.848 830.33,594.63C830.575,595.113 830.915,595.542 831.33,595.89C831.428,596.454 831.468,597.027 831.45,597.6C831.241,599.922 830.758,602.212 830.01,604.42C828.81,608.48 827.613,612.543 826.42,616.61C825.964,618.046 825.63,619.518 825.42,621.01C825.345,621.735 825.345,622.465 825.42,623.19C825.63,625.4 826.9,627.68 829.01,628.4C830.646,628.833 832.388,628.618 833.87,627.8C835.301,627.053 836.642,626.147 837.87,625.1C840.084,623.425 842.03,621.422 843.64,619.16C848.64,611.68 847.02,601.56 850.53,593.29C852.86,587.77 857.4,583.29 858.91,577.47C859.263,576.363 859.305,575.179 859.03,574.05C858.4,572.05 856.27,570.91 854.28,570.19L854.19,570.19C852.555,569.608 850.885,569.13 849.19,568.76C848.77,568.67 848.34,568.6 847.91,568.53C846.958,567.756 846.202,566.769 845.7,565.65C845.622,565.055 845.463,564.473 845.23,563.92C844.908,563.437 844.371,563.138 843.79,563.12C842.79,563.02 841.45,563.38 840.36,563.3C838.13,563.14 836.65,560.95 834.65,559.94C832.65,558.93 830.48,559.18 828.35,559.33C827.588,559.434 826.813,559.387 826.07,559.19C825.182,558.781 824.37,558.223 823.67,557.54C821.177,555.6 817.909,554.943 814.86,555.77C813.903,556.156 812.89,556.386 811.86,556.45C809.91,556.34 808.53,554.6 807.09,553.28C803.15,549.67 797.54,548.72 792.76,546.35C792.029,546.078 791.418,545.553 791.04,544.87C790.49,543.51 791.73,542.15 792.85,541.22L801.07,534.39C810.07,526.91 821.32,521.28 825.5,510.31C825.936,508.839 826.612,507.451 827.5,506.2C827.823,505.818 828.197,505.482 828.61,505.2C830.428,504.022 832.633,503.592 834.76,504C837.353,504.58 839.811,505.653 842,507.16C845.58,509.327 849.063,511.66 852.45,514.16C855.805,516.557 858.995,519.177 862,522C867.25,527 871.62,532.93 876.51,538.32C881.4,543.71 886.99,548.74 893.78,551.32C900.57,553.9 908.78,553.79 914.61,549.46C921.34,544.46 923.5,535.52 925.2,527.32C928.95,523.7 930.08,518.19 931.91,513.32C933.06,510.23 934.53,507.32 935.77,504.24C937.25,500.62 938.41,496.88 939.57,493.15C940.885,489.404 941.777,485.524 942.23,481.58C942.71,475.35 941.04,468.72 942.79,462.87C945.1,462.36 947.2,461.06 949.47,460.3C952.85,459.19 956.47,459.37 960.05,459.39L960.28,459.39C961.513,459.521 962.755,459.228 963.8,458.56C965,457.56 965.19,455.85 965.25,454.3C965.39,450.47 965.15,446.17 962.28,443.69ZM817.39,273.11C816.563,273.315 815.707,273.375 814.86,273.29L817.39,273.11Z" style="fill:url(#_Linear1);fill-rule:nonzero;"/>
    </g>
    <g transform="matrix(1,0,0,1,-28,-123.74)">
        <path d="M821.33,336.37C820.119,337.398 818.7,338.152 817.17,338.58L810.08,341.12C806.23,342.5 802.21,343.89 798.15,343.39C795.88,343.11 786.15,341.68 784.68,339.91C782.44,337.17 790.29,333.14 792.97,330.83C793.577,330.393 794.14,329.898 794.65,329.35C795.65,328.13 795.52,326.42 795.38,324.88C794.871,320.979 794.697,317.041 794.86,313.11C794.938,312.173 795.071,311.241 795.26,310.32C796.26,305.72 800.54,307.4 803.92,308.62C807.989,309.942 811.923,311.646 815.67,313.71C816.811,314.298 817.803,315.14 818.57,316.17C820.05,318.41 819.46,321.35 819.22,324.17C819.01,326.36 819.02,328.46 820.39,330.05C821.079,330.658 821.712,331.327 822.28,332.05C822.935,333.539 822.549,335.293 821.33,336.37Z" style="fill:rgb(190,111,114);fill-rule:nonzero;"/>
    </g>
    <g transform="matrix(1,0,0,1,-28,-123.74)">
        <path d="M723.39,264.3C724.39,259.87 724.61,255.3 725.81,250.91C726.657,248.056 727.706,245.265 728.95,242.56L733.36,232.27C733.763,231.055 734.481,229.968 735.44,229.12C736.468,228.483 737.661,228.163 738.87,228.2C743.18,228.04 747.71,229.38 750.65,232.55C753.59,235.72 754.52,240.85 752.18,244.48C749.38,248.85 743.27,249.73 739.62,253.41C737.29,255.76 736.16,259.03 735.47,262.26C733.65,270.66 734.26,279.37 733.7,287.95C733.52,290.62 733,293.67 730.7,295.05C729.31,295.731 727.764,296.031 726.22,295.92L719.66,296.03C718.56,296.03 714.57,296.72 713.84,295.89C712.56,294.44 715.48,287.22 716.01,285.61C717.19,282.04 718.64,278.56 720.01,275.05C721.2,271.92 723.39,267.69 723.39,264.3Z" style="fill:rgb(190,111,114);fill-rule:nonzero;"/>
    </g>
    <g transform="matrix(1,0,0,1,-28,-123.74)">
        <path d="M858.84,578.46C857.33,584.24 852.79,588.74 850.46,594.25C846.95,602.5 848.53,612.59 843.57,620.05C841.961,622.316 840.015,624.322 837.8,626C836.572,627.044 835.23,627.947 833.8,628.69C832.318,629.508 830.576,629.723 828.94,629.29C826.83,628.57 825.56,626.29 825.35,624.09C825.275,623.369 825.275,622.641 825.35,621.92C825.56,620.431 825.895,618.963 826.35,617.53C827.55,613.483 828.747,609.43 829.94,605.37C830.687,603.168 831.17,600.886 831.38,598.57C831.51,596.05 829.91,592.77 830.59,590.42C830.9,589.36 832.06,588.42 832.59,587.53C833.342,586.249 833.921,584.874 834.31,583.44C835.13,580.65 835.69,577.67 837.41,575.32C838.532,573.926 839.845,572.698 841.31,571.67C842.391,570.722 843.658,570.01 845.03,569.58C846.361,569.346 847.727,569.411 849.03,569.77C850.726,570.132 852.397,570.607 854.03,571.19L854.12,571.19C856.12,571.91 858.24,573.02 858.87,575.04C859.176,576.161 859.166,577.345 858.84,578.46Z" style="fill:rgb(63,61,86);fill-rule:nonzero;"/>
    </g>
    <g transform="matrix(1,0,0,1,-28,-123.74)">
        <path d="M965.24,455.52C965.18,457.07 964.99,458.8 963.79,459.77C962.745,460.438 961.503,460.731 960.27,460.6L960,460.6C956.43,460.6 952.8,460.4 949.42,461.51C946.85,462.36 944.49,463.92 941.81,464.23C938.12,464.65 934.65,462.63 931.38,460.87C928.301,459.211 925.14,457.709 921.91,456.37C919.79,455.5 915.46,454.94 914.44,452.62C914.09,451.522 913.797,450.407 913.56,449.28C913.392,448.776 913.188,448.285 912.95,447.81C912.35,446.797 911.969,445.669 911.83,444.5C911.834,443.335 912.236,442.205 912.97,441.3C914.617,439.35 916.976,438.137 919.52,437.93C922.04,437.734 924.575,437.869 927.06,438.33L951.68,441.87C953.58,442.14 955.49,442.41 957.36,442.87C959.136,443.178 960.81,443.912 962.24,445.01C965.15,447.45 965.39,451.74 965.24,455.52Z" style="fill:rgb(63,61,86);fill-rule:nonzero;"/>
    </g>
    <g transform="matrix(1,0,0,1,-28,-123.74)">
        <path d="M943.6,461.92C940.6,468.25 942.76,475.74 942.22,482.74C941.767,486.674 940.874,490.545 939.56,494.28C938.4,498 937.24,501.73 935.76,505.34C934.52,508.34 933.05,511.34 931.9,514.4C930.07,519.28 928.9,524.77 925.19,528.4C923.49,536.58 921.33,545.52 914.6,550.48C908.75,554.8 900.6,554.95 893.77,552.34C886.94,549.73 881.39,544.73 876.5,539.34C871.61,533.95 867.24,528.08 861.99,523.06C858.981,520.236 855.784,517.62 852.42,515.23C849.033,512.77 845.55,510.457 841.97,508.29C839.778,506.79 837.321,505.721 834.73,505.14C832.603,504.732 830.398,505.162 828.58,506.34C828.167,506.622 827.793,506.958 827.47,507.34C826.58,508.586 825.904,509.972 825.47,511.44C821.27,522.38 810,528 801,535.46L792.78,542.27C791.66,543.2 790.42,544.56 790.97,545.91C791.348,546.593 791.959,547.118 792.69,547.39C797.47,549.75 803.08,550.7 807.02,554.3C808.46,555.62 809.84,557.36 811.79,557.46C812.82,557.4 813.833,557.173 814.79,556.79C817.838,555.965 821.103,556.618 823.6,558.55C824.3,559.233 825.112,559.791 826,560.2C826.743,560.397 827.518,560.444 828.28,560.34C830.41,560.19 832.67,560 834.58,560.95C836.49,561.9 838.06,564.14 840.29,564.3C841.38,564.38 842.68,564.02 843.72,564.12C844.301,564.138 844.838,564.437 845.16,564.92C845.393,565.47 845.551,566.048 845.63,566.64C846.04,568.05 847.42,568.91 848.32,570.07C849.7,571.85 849.9,574.27 849.76,576.52C849.307,583.553 846.17,590.15 841,594.94C839.532,596.441 837.659,597.483 835.61,597.94C833.511,598.379 831.353,597.421 830.27,595.57C830.047,594.791 829.71,594.05 829.27,593.37C827.66,591.6 824.05,593.48 822.57,591.59C821.65,590.41 822.31,588.52 821.43,587.3C820.55,586.08 818.43,586.3 816.8,586.23C814.89,586.13 813.12,585.23 811.27,584.76C808.27,583.98 805.13,584.27 802.06,584.06C799.509,583.835 796.976,583.434 794.48,582.86L781.76,580.26C773.66,578.61 765.53,576.94 757.82,573.99C754.87,572.87 751.9,571.49 749.82,569.09C748.143,566.981 747.065,564.459 746.7,561.79C744.89,551.12 754.49,542 755.7,531.25C756.13,527.33 757.7,523.63 759.18,519.99C761.893,513.483 764.6,506.973 767.3,500.46C767.737,499.247 768.307,498.087 769,497C770.151,495.608 771.448,494.344 772.87,493.23C776.659,489.792 779.378,485.333 780.7,480.39C780.798,479.84 781.028,479.322 781.37,478.88C781.724,478.583 782.114,478.331 782.53,478.13C783.995,477.176 784.622,475.328 784.04,473.68C785.317,473.574 786.336,472.539 786.42,471.26C786.347,470.719 786.381,470.168 786.52,469.64C786.76,469.12 787.36,468.86 787.71,468.4C788.28,467.65 788.08,466.6 787.99,465.66C787.93,465.065 787.93,464.465 787.99,463.87C788.209,461.753 789.157,459.776 790.67,458.28C793.06,455.93 796.46,456.54 799.76,455.98C803.052,455.27 806.267,454.241 809.36,452.91C818.037,449.491 827.173,447.378 836.47,446.64C845.813,445.905 855.198,447.4 863.85,451C865.109,451.51 866.296,452.182 867.38,453C868.15,453.593 868.781,454.348 869.23,455.21C869.599,456.269 870.054,457.295 870.59,458.28C871.66,459.74 873.68,460.21 874.85,461.59C876.02,462.97 876.12,465.3 877.09,467.01C878.48,469.45 881.7,470.58 882.66,473.23C882.96,474.07 883,474.99 883.22,475.86C883.76,478.04 885.38,479.76 886.81,481.48C892.052,487.75 895.409,495.38 896.49,503.48C896.81,498.41 900.22,493.92 904.49,491.12C905.64,490.37 906.97,489.54 907.2,488.18C907.49,486.46 905.82,484.93 905.93,483.18C906.051,482.326 906.396,481.518 906.93,480.84C908.836,478.078 910.927,475.448 913.19,472.97C914.42,471.62 915.8,469.97 915.29,468.19C914.9,466.86 913.54,466.08 912.79,464.92C911.897,463.509 911.936,461.691 912.89,460.32C913.59,459.37 914.7,458.68 915.04,457.55C915.43,456.22 914.56,454.78 914.83,453.41C915.195,452.313 915.922,451.372 916.89,450.74C918.217,449.532 919.725,448.54 921.36,447.8C924,446.8 926.94,447.17 929.74,447.56C934.42,448.21 939.67,449.21 942.31,453.13C944,455.58 944.86,459.3 943.6,461.92Z" style="fill:rgb(101,97,125);fill-rule:nonzero;"/>
    </g>
    <g transform="matrix(1,0,0,1,-28,-123.74)">
        <path d="M965.24,455.52C965.18,457.07 964.99,458.8 963.79,459.77C962.745,460.438 961.503,460.731 960.27,460.6L960,460.6C960.41,458.52 962.94,457.33 963.38,455.22C963.532,453.91 963.133,452.595 962.28,451.59C960.14,448.7 956.7,447.1 953.28,445.93C943.619,442.618 933.267,441.843 923.22,443.68C920.488,444.125 917.83,444.943 915.32,446.11C914.488,446.63 913.687,447.198 912.92,447.81C912.32,446.797 911.939,445.669 911.8,444.5C911.804,443.335 912.206,442.205 912.94,441.3C914.587,439.35 916.946,438.137 919.49,437.93C922.01,437.734 924.545,437.869 927.03,438.33L951.65,441.87C953.55,442.14 955.46,442.41 957.33,442.87C959.106,443.178 960.78,443.912 962.21,445.01C965.15,447.45 965.39,451.74 965.24,455.52Z" style="fill-opacity:0.1;fill-rule:nonzero;"/>
    </g>
    <g transform="matrix(1,0,0,1,-28,-123.74)">
        <path d="M858.84,578.46C857.33,584.24 852.79,588.74 850.46,594.25C846.95,602.5 848.53,612.59 843.57,620.05C841.961,622.316 840.015,624.322 837.8,626C836.572,627.044 835.23,627.947 833.8,628.69C832.318,629.508 830.576,629.723 828.94,629.29C826.83,628.57 825.56,626.29 825.35,624.09C825.275,623.369 825.275,622.641 825.35,621.92L825.41,622.08C826.28,624.18 827.7,626.38 829.94,626.75C831.639,626.872 833.314,626.281 834.56,625.12C837.86,622.47 839.78,618.52 841.61,614.71C843.042,611.963 844.175,609.069 844.99,606.08C845.39,604.38 845.58,602.64 845.99,600.94C847.89,592.68 854.36,585.94 855.79,577.57C855.906,576.994 855.933,576.404 855.87,575.82C855.681,575.058 855.392,574.325 855.01,573.64C854.662,572.866 854.407,572.054 854.25,571.22C856.25,571.94 858.37,573.05 859,575.07C859.258,576.193 859.203,577.366 858.84,578.46Z" style="fill-opacity:0.1;fill-rule:nonzero;"/>
    </g>
    <g transform="matrix(1,0,0,1,-28,-123.74)">
        <path d="M843.74,564.12C842.814,566.539 841.257,568.667 839.23,570.28C836.383,572.449 833.05,573.891 829.52,574.48C827.877,574.899 826.152,574.878 824.52,574.42C822.3,573.65 820.7,571.57 818.43,570.97C816.81,570.53 815.07,570.92 813.43,570.68C810.48,570.27 808.19,568.02 805.81,566.22C798.52,560.74 788.95,558.97 781.66,553.49C781.335,553.291 781.067,553.012 780.88,552.68C780.74,552.321 780.689,551.933 780.73,551.55C780.757,548.226 781.504,544.947 782.92,541.94C784.08,539.842 785.461,537.874 787.04,536.07C793.57,528.07 800.13,520.01 807.95,513.26C811.23,510.43 814.81,507.79 818.95,506.51C821.25,505.8 825.79,505.13 828.59,506.33C828.177,506.612 827.803,506.948 827.48,507.33C826.59,508.576 825.914,509.962 825.48,511.43C821.27,522.38 810,528 801,535.46L792.78,542.27C791.66,543.2 790.42,544.56 790.97,545.91C791.348,546.593 791.959,547.118 792.69,547.39C797.47,549.75 803.08,550.7 807.02,554.3C808.46,555.62 809.84,557.36 811.79,557.46C812.82,557.4 813.833,557.173 814.79,556.79C817.838,555.965 821.103,556.618 823.6,558.55C824.3,559.233 825.112,559.791 826,560.2C826.743,560.397 827.518,560.444 828.28,560.34C830.41,560.19 832.67,560 834.58,560.95C836.49,561.9 838.06,564.14 840.29,564.3C841.4,564.38 842.7,564 843.74,564.12Z" style="fill-opacity:0.1;fill-rule:nonzero;"/>
    </g>
    <g transform="matrix(1,0,0,1,-28,-123.74)">
        <path d="M751.77,428.4C749.87,429.62 747.85,431 747.07,433.12C746.43,434.85 746.73,436.83 745.96,438.51C745.19,440.19 743.46,441.36 743.08,443.16C742.81,444.47 743.34,445.85 743.08,447.16C742.854,447.841 742.67,448.536 742.53,449.24C742.43,450.73 743.71,451.94 744.96,452.77C750.353,456.277 757.104,457.021 763.13,454.77C765.8,453.77 768.21,452.14 770.77,450.86C773.266,449.423 776.122,448.728 779,448.86C780.65,449.04 782.23,449.64 783.88,449.86C785.533,450.187 787.245,449.677 788.45,448.5C788.96,447.797 789.302,446.986 789.45,446.13C790.84,440.64 790.21,434.82 788.89,429.3C787.57,423.78 785.57,418.47 784.16,412.98C783.16,408.91 782.39,404.74 780.72,400.89C779.05,397.04 776.24,393.46 772.31,391.99C772,391.838 771.648,391.792 771.31,391.86C771.058,391.965 770.835,392.13 770.66,392.34C767.551,395.634 765.209,399.575 763.8,403.88C762.23,408.67 761.8,413.75 760.36,418.56C759.74,420.56 758.94,423.24 757.36,424.77C755.78,426.3 753.56,427.25 751.77,428.4Z" style="fill:rgb(63,61,86);fill-rule:nonzero;"/>
    </g>
    <g transform="matrix(1,0,0,1,-28,-123.74)">
        <path d="M789.48,446.1C789.312,446.959 788.953,447.769 788.43,448.47C787.227,449.651 785.512,450.158 783.86,449.82C782.22,449.62 780.64,449.01 778.99,448.82C776.112,448.687 773.256,449.381 770.76,450.82C768.2,452.1 765.76,453.69 763.11,454.72C759.234,456.19 754.998,456.431 750.98,455.41C748.846,454.874 746.817,453.981 744.98,452.77C743.72,451.95 742.45,450.77 742.55,449.24C742.69,448.539 742.874,447.848 743.1,447.17C743.36,445.86 742.84,444.48 743.1,443.17C743.48,441.37 745.22,440.17 745.98,438.51C746.74,436.85 746.45,434.86 747.08,433.13C747.86,431 749.89,429.63 751.79,428.4C753.69,427.17 755.95,426.23 757.47,424.74C757.666,424.508 757.844,424.261 758,424C759.096,422.309 759.901,420.447 760.38,418.49C761.85,413.67 762.25,408.6 763.81,403.8C765.225,399.499 767.571,395.562 770.68,392.27C770.846,392.055 771.067,391.89 771.32,391.79C771.658,391.721 772.008,391.763 772.32,391.91C776.24,393.39 779.05,396.97 780.73,400.82C782.41,404.67 783.12,408.82 784.17,412.9C785.57,418.39 787.58,423.72 788.9,429.23C790.22,434.74 790.87,440.6 789.48,446.1Z" style="fill-opacity:0.1;fill-rule:nonzero;"/>
    </g>
    <g transform="matrix(1,0,0,1,-28,-123.74)">
        <path d="M819.22,324.14C809.531,327.219 798.958,322.444 794.86,313.14C794.938,312.203 795.071,311.271 795.26,310.35C796.26,305.75 800.54,307.43 803.92,308.65C807.989,309.972 811.923,311.676 815.67,313.74C816.811,314.328 817.803,315.17 818.57,316.2C820.05,318.41 819.46,321.35 819.22,324.14Z" style="fill-opacity:0.1;fill-rule:nonzero;"/>
    </g>
    <circle cx="785.18" cy="180.34" r="20" style="fill:rgb(190,111,114);"/>
    <g transform="matrix(1,0,0,1,-28,-123.74)">
        <path d="M867.45,453.54C867.45,455.2 865.2,455.73 863.53,455.64C857.53,455.29 851.66,453.64 845.72,454.14C838.21,454.82 831.31,458.97 823.78,459.35C820.88,459.5 817.93,459.07 815.07,459.6C811.37,460.29 808.07,462.54 804.3,462.86C801.03,463.14 797.8,461.91 794.53,462.04C792.244,462.176 790.015,462.811 788,463.9C788.219,461.783 789.167,459.806 790.68,458.31C793.07,455.96 796.47,456.57 799.77,456.01C803.062,455.3 806.277,454.271 809.37,452.94C818.047,449.521 827.183,447.408 836.48,446.67C845.817,445.927 855.198,447.412 863.85,451C865.109,451.51 866.296,452.182 867.38,453C867.435,453.175 867.458,453.357 867.45,453.54Z" style="fill-opacity:0.1;fill-rule:nonzero;"/>
    </g>
    <g transform="matrix(1,0,0,1,-28,-123.74)">
        <path d="M803.93,340.6L795.83,337.6L792.41,336.34C791.016,335.756 789.549,335.366 788.05,335.18C784.13,334.88 780.44,337.49 778.35,340.82C776.26,344.15 775.47,348.12 774.8,351.99C773.88,357.283 773.1,362.597 772.46,367.93C771.771,372.746 771.42,377.605 771.41,382.47C771.64,394.85 774.26,407.06 777.14,419.11C778.551,424.453 779.616,429.881 780.33,435.36C780.57,437.62 780.68,439.89 780.92,442.16C781.18,444.71 781.6,447.23 782.02,449.76L784.43,464.13C787.43,462 790.84,460.13 794.53,460.02C797.8,459.9 801.04,461.12 804.3,460.84C808.05,460.53 811.37,458.28 815.07,457.59C817.93,457.06 820.88,457.48 823.79,457.34C831.31,456.96 838.22,452.8 845.72,452.13C851.67,451.59 857.58,453.27 863.54,453.62C865.2,453.72 867.45,453.19 867.45,451.52C867.45,450.36 866.29,449.59 865.28,449.01C860.519,446.143 855.989,442.91 851.73,439.34C847.79,436.22 843.79,433.02 841.08,428.8C834.55,418.65 836.79,404.92 831.22,394.21C826.69,385.51 831.22,374.11 831.22,364.3C831.22,359.41 831.22,354.46 830.07,349.71C829.351,347.053 828.456,344.448 827.39,341.91L823.5,332.06C823.419,331.772 823.26,331.512 823.04,331.31C822.779,331.13 822.467,331.035 822.15,331.04C819.815,330.9 817.509,331.639 815.69,333.11C813.86,334.6 812.69,336.74 810.89,338.29C808.92,340 806.38,341.5 803.93,340.6Z" style="fill:rgb(227,232,244);fill-rule:nonzero;"/>
    </g>
    <g transform="matrix(1,0,0,1,-28,-123.74)">
        <path d="M817,334.92C817.64,332.18 818.33,329.33 820.16,327.19C821.99,325.05 825.33,323.92 827.69,325.45C830.37,327.19 830.48,331.21 832.77,333.45C834.77,335.37 837.77,335.52 840.49,335.77C845.381,336.215 850.185,337.346 854.76,339.13C855.652,339.407 856.465,339.894 857.13,340.55C858.38,341.97 858.13,344.15 858.75,345.92C859.6,348.2 861.95,349.65 862.86,351.92C863.86,354.44 862.86,357.26 862.02,359.85C860.51,364.5 859.56,369.33 858.09,374C856.62,378.67 854.53,383.27 851.09,386.79C849.57,388.35 847.31,389.79 845.31,388.86L844.54,394.41C844.315,395.583 844.315,396.787 844.54,397.96C844.777,399.155 845.681,400.114 846.86,400.42C847.01,401.28 847.92,401.69 848.66,402.16C850.021,403.091 850.838,404.638 850.838,406.287C850.838,407.315 850.521,408.319 849.93,409.16C849.3,410.01 848.37,410.68 848.07,411.69C847.62,413.15 848.69,414.69 849.99,415.49C851.29,416.29 852.82,416.66 854.14,417.43C856.88,419.01 858.35,422.12 859.29,425.14C859.99,427.42 860.57,429.89 862.29,431.55C862.95,432.18 863.74,432.66 864.37,433.32C865.46,434.608 866.09,436.224 866.16,437.91C866.434,440 865.974,442.121 864.86,443.91C862.86,446.77 859.13,447.62 855.86,448.91C850.55,451.09 846.18,454.99 841.5,458.31C839.594,459.845 837.348,460.901 834.95,461.39C831.71,461.82 828.52,460.39 825.26,460.26C823.31,460.278 821.369,460.533 819.48,461.02L813.48,462.32C813.8,457.67 811.24,453.01 809.81,448.58C807.11,440.24 806.61,431.32 807.25,422.58C807.89,413.84 809.67,405.22 811.43,396.64C812.66,390.64 812.54,384.37 814.43,378.54C816.2,372.93 818.73,367.54 819.66,361.7C821.18,352.25 814.86,344.24 817,334.92Z" style="fill:rgb(63,61,86);fill-rule:nonzero;"/>
    </g>
    <g transform="matrix(1,0,0,1,-28,-123.74)">
        <path d="M862.49,353.41C863.042,354.426 863.43,355.523 863.64,356.66C864.102,358.421 864.969,360.051 866.17,361.42C867.176,362.307 868.069,363.315 868.83,364.42C869.75,366.16 869.4,368.28 869.83,370.18C870.33,372.25 871.78,374.05 871.99,376.18C871.996,376.79 872.053,377.399 872.16,378C872.81,380.42 876.37,381 877.16,383.42C877.69,384.99 876.78,386.7 876.95,388.35C877.074,388.86 877.105,389.389 877.04,389.91C876.814,390.499 876.417,391.008 875.9,391.37C872.591,394.531 870.299,398.609 869.32,403.08C868.356,407.527 867.85,412.06 867.81,416.61L863.9,411.44C863.486,410.813 862.957,410.27 862.34,409.84C861.84,409.54 861.26,409.39 860.75,409.09C859.27,408.25 858.69,406.47 858.12,404.87C856.537,400.441 854.165,396.335 851.12,392.75C849.53,390.88 847.68,389 847.33,386.57C847.225,385.454 847.286,384.328 847.51,383.23C848.51,376.68 849.58,369.97 852.77,364.16C854.26,361.44 856.19,358.98 857.62,356.22C858.58,354.39 859.93,349.63 862.49,353.41Z" style="fill:rgb(63,61,86);fill-rule:nonzero;"/>
    </g>
    <g transform="matrix(1,0,0,1,-28,-123.74)">
        <path d="M763.84,359.7C763.858,360.542 763.644,361.372 763.22,362.1C762.441,363.002 761.216,363.39 760.06,363.1C758.921,362.814 757.848,362.312 756.9,361.62C754.113,359.86 751.327,358.097 748.54,356.33C746.984,355.392 745.485,354.364 744.05,353.25C741.857,351.398 739.869,349.316 738.12,347.04C733.26,341.04 728.96,334.53 723.55,329.04C722.08,327.54 720.55,326.1 719.13,324.53C717.189,322.261 715.405,319.862 713.79,317.35C712.23,315.04 710.61,312.48 710.88,309.72C711.04,308.16 711.79,306.72 712.01,305.17C712.23,303.62 711.64,301.73 710.14,301.31C709.963,301.265 709.782,301.235 709.6,301.22C709.304,301.189 709.012,301.125 708.73,301.03C707.34,300.45 707.55,298.3 708.55,297.17C709.55,296.04 711.03,295.41 711.94,294.17C712.363,293.434 712.838,292.729 713.36,292.06C714.03,291.486 714.83,291.084 715.69,290.89C721.458,289.19 727.56,288.96 733.44,290.22C734.44,290.44 735.58,290.84 735.88,291.81C736,292.282 736,292.778 735.88,293.25C735.439,295.222 735.185,297.231 735.12,299.25C735.118,299.671 735.142,300.092 735.19,300.51C735.66,304.75 738.41,308.34 741.09,311.65C744.27,315.59 747.5,319.5 750.74,323.4C752.492,325.66 754.451,327.752 756.59,329.65C758.59,331.31 761.18,332.65 762.74,334.78C764.01,336.5 763.6,338.85 763.74,340.92C764.205,347.17 764.239,353.445 763.84,359.7Z" style="fill:rgb(63,61,86);fill-rule:nonzero;"/>
    </g>
    <g transform="matrix(1,0,0,1,-28,-123.74)">
        <path d="M890.84,401.42C891.828,400.46 892.719,399.405 893.5,398.27C894.341,396.864 895.012,395.364 895.5,393.8L901.3,377.35C902.22,374.75 903.14,372.14 904.3,369.61C905.5,366.88 906.92,364.25 908.23,361.61C911.599,354.663 914.205,347.37 916,339.86C916.316,338.828 916.421,337.743 916.31,336.67C916.03,334.94 914.72,333.59 913.47,332.36C912.213,331.002 910.78,329.819 909.21,328.84C907.618,327.85 905.693,327.54 903.87,327.98C901.31,328.73 899.7,331.35 899.11,333.98C898.52,336.61 898.74,339.3 898.49,341.98C898.13,345.82 896.81,349.53 896.49,353.38C896.32,355.61 896.49,357.86 896.22,360.08C895.728,362.995 894.711,365.797 893.22,368.35C889.971,374.431 885.581,379.829 880.29,384.25C878.841,385.32 877.536,386.574 876.41,387.98C875.47,389.386 874.833,390.974 874.54,392.64C873.876,395.177 874.164,397.871 875.35,400.21C876.98,402.99 880.11,404.21 883.1,404.83C887.14,405.67 888.07,404.29 890.84,401.42Z" style="fill:rgb(190,111,114);fill-rule:nonzero;"/>
    </g>
    <g transform="matrix(1,0,0,1,-28,-123.74)">
        <path d="M813.3,275.1C815.057,271.799 818.635,269.86 822.36,270.19C826.105,270.853 829.16,273.598 830.22,277.25C830.69,278.74 830.88,280.39 831.7,281.67C832.94,283.6 835.24,284.16 836.96,285.56C839.034,287.487 840.246,290.17 840.32,293C840.416,295.862 839.964,298.717 838.99,301.41C838.577,302.559 838.243,303.735 837.99,304.93C837.79,306.09 837.77,307.27 837.59,308.43C837.142,311.467 835.486,314.199 833,316C832.65,316.286 832.212,316.445 831.76,316.45C830.98,316.36 830.5,315.45 830.21,314.63C828.62,310.04 829,304.43 826.07,300.77C824.737,299.294 823.126,298.094 821.33,297.24C820.598,296.768 819.772,296.457 818.91,296.33C817.642,296.398 816.423,296.844 815.41,297.61C813.299,299.026 810.957,300.061 808.49,300.67C805.998,301.26 803.368,300.694 801.34,299.13C799.96,297.99 798.95,296.28 797.42,295.39C795.89,294.5 794.29,294.55 792.78,293.94C790.25,292.864 788.599,290.368 788.599,287.618C788.599,286.116 789.091,284.655 790,283.46C791,282.26 792.48,281.58 793.37,280.25C794.52,278.53 794.42,276.17 794.97,274.11C795.63,271.468 797.528,269.302 800.06,268.3C802.524,267.463 805.258,268.035 807.18,269.79C808.18,270.69 808.98,271.85 809.96,272.79C811.924,274.67 814.716,275.425 817.36,274.79" style="fill:rgb(63,61,86);fill-rule:nonzero;"/>
    </g>
    <g transform="matrix(1,0,0,1,-28,-123.74)">
        <path d="M829.74,422.29C828.551,423.349 828.129,425.036 828.68,426.53C828.9,427 839.22,425.01 840.31,424.86C843.03,424.47 847.8,424.66 849.63,422.17C852.89,417.76 842.79,418.74 840.94,418.9C837.42,419.2 832.42,419.68 829.74,422.29Z" style="fill-opacity:0.1;fill-rule:nonzero;"/>
    </g>
    <g transform="matrix(1,0,0,1,-28,-123.74)">
        <path d="M735.86,293.29C735.419,295.262 735.165,297.271 735.1,299.29C732.1,299.9 728.98,298.9 726.1,297.9L717.83,295.08C716.792,294.417 715.399,294.677 714.67,295.67C713.34,297.05 711.51,299.67 709.67,301.22C709.374,301.189 709.082,301.125 708.8,301.03C707.41,300.45 707.62,298.3 708.62,297.17C709.62,296.04 711.1,295.41 712.01,294.17C712.433,293.434 712.908,292.729 713.43,292.06C714.1,291.486 714.9,291.084 715.76,290.89C721.528,289.19 727.63,288.96 733.51,290.22C734.51,290.44 735.65,290.84 735.95,291.81C736.047,292.303 736.016,292.813 735.86,293.29Z" style="fill:rgb(63,61,86);fill-rule:nonzero;"/>
    </g>
    <g transform="matrix(1,0,0,1,-28,-123.74)">
        <path d="M735.86,293.29C735.419,295.262 735.165,297.271 735.1,299.29C732.1,299.9 728.98,298.9 726.1,297.9L717.83,295.08C716.792,294.417 715.399,294.677 714.67,295.67C713.34,297.05 711.51,299.67 709.67,301.22C709.374,301.189 709.082,301.125 708.8,301.03C707.41,300.45 707.62,298.3 708.62,297.17C709.62,296.04 711.1,295.41 712.01,294.17C712.433,293.434 712.908,292.729 713.43,292.06C714.1,291.486 714.9,291.084 715.76,290.89C721.528,289.19 727.63,288.96 733.51,290.22C734.51,290.44 735.65,290.84 735.95,291.81C736.047,292.303 736.016,292.813 735.86,293.29Z" style="fill-opacity:0.1;fill-rule:nonzero;"/>
    </g>
    <g transform="matrix(1,0,0,1,-28,-123.74)">
        <path d="M811.51,483.14C812.95,483.62 814.51,484.32 815,485.76L803.42,482.82L797.42,481.29C796.36,481.02 792.56,480.71 791.86,479.88C790.86,478.66 794.41,479.5 795.05,479.59C796.99,479.88 798.93,480.18 800.86,480.53C804.5,481.18 808,482.25 811.51,483.14Z" style="fill-opacity:0.1;fill-rule:nonzero;"/>
    </g>
    <g transform="matrix(1,0,0,1,-28,-123.74)">
        <path d="M816,493.39C815,492.72 812.13,492.8 810.9,492.51C809.1,492.08 807.33,491.51 805.56,490.96C801.97,489.79 798.41,488.46 794.72,487.6C794.04,487.45 791.72,487.41 791.83,486.55C791.94,485.69 794.15,485.39 794.7,485.35C797.97,485.11 802.05,486.64 805.09,487.73C808.964,489.118 812.634,491.022 816,493.39Z" style="fill-opacity:0.1;fill-rule:nonzero;"/>
    </g>
    <g transform="matrix(1,0,0,1,-28,-123.74)">
        <path d="M808.66,474C804.99,473 801.66,470.72 797.88,470.28C796.895,470.317 795.926,470.021 795.13,469.44C794.686,469.003 794.377,468.448 794.24,467.84C796.77,467.71 799.71,468.78 802.01,469.79C803.276,470.333 804.493,470.982 805.65,471.73C806.49,472.24 807.75,473.71 808.66,474Z" style="fill-opacity:0.1;fill-rule:nonzero;"/>
    </g>
    <g transform="matrix(1,0,0,1,-28,-123.74)">
        <path d="M878.62,384.46C877.343,393.016 882.596,401.298 890.88,403.79C890.39,406.16 887.94,407.47 886.21,409.16C883.77,411.53 882.51,415.08 879.63,416.88C876.42,418.88 872.29,418.1 868.63,417.26C868.297,417.223 867.99,417.062 867.77,416.81C867.695,416.69 867.64,416.558 867.61,416.42C866.4,411.99 865.61,407.26 866.85,402.82C867.85,399.04 870.25,395.82 872.17,392.48C874.09,389.14 874.27,385.56 878.62,384.46Z" style="fill:rgb(63,61,86);fill-rule:nonzero;"/>
    </g>
    <g transform="matrix(1,0,0,1,-28,-123.74)">
        <path d="M789.21,327.12C785.339,327.402 781.581,328.546 778.21,330.47C775.97,331.75 773.67,333.47 771.11,333.16C769.6,332.99 768.11,332.16 766.64,332.56C765.812,332.894 765.04,333.353 764.35,333.92C763.639,334.486 762.681,334.638 761.83,334.32L760.83,348.16C760.45,353.42 760.08,358.79 761.34,363.92C761.99,366.54 763.42,368.92 763.58,371.58C763.74,374.24 763.5,376.97 763.69,379.66C763.87,382.15 764.42,384.6 764.56,387.09C764.84,391.79 763.68,396.45 762.56,401.02C760.87,407.76 759.85,414.65 756.56,420.75C755.64,422.44 754.56,424.16 754.56,426.08C754.56,426.32 754.56,426.55 754.62,426.78C753.62,427.33 752.69,427.85 751.84,428.39C749.94,429.62 747.91,430.99 747.13,433.12C746.5,434.85 746.79,436.83 746.03,438.5C745.27,440.17 743.53,441.36 743.15,443.16C742.88,444.47 743.4,445.85 743.15,447.16C742.924,447.838 742.74,448.529 742.6,449.23C742.5,450.73 743.77,451.94 745.03,452.76C746.867,453.971 748.896,454.864 751.03,455.4L757,431.7C762.443,421.636 766.971,411.104 770.53,400.23C771.548,396.676 772.856,393.211 774.44,389.87C775.572,387.98 776.574,386.016 777.44,383.99C778.35,381.47 778.44,378.74 778.88,376.08C779.402,372.975 780.189,369.921 781.23,366.95C782.31,363.74 783.56,360.54 783.78,357.17C784.11,352.35 782.36,347.26 784.22,342.8C785.01,341.131 786.037,339.585 787.27,338.21C789.85,335.05 792.2,331.74 794.78,328.58C793.44,327.15 791.21,327 789.21,327.12Z" style="fill:rgb(63,61,86);fill-rule:nonzero;"/>
    </g>
    <g opacity="0.1">
        <g transform="matrix(1,0,0,1,-28,-123.74)">
            <path d="M817.39,271.81L816.14,271.9L816,272C816.468,271.981 816.934,271.917 817.39,271.81Z" style="fill-rule:nonzero;"/>
        </g>
        <g transform="matrix(1,0,0,1,-28,-123.74)">
            <path d="M840.27,292.57C840.061,294.558 839.632,296.517 838.99,298.41C838.577,299.559 838.243,300.735 837.99,301.93C837.79,303.09 837.77,304.27 837.59,305.43C837.142,308.467 835.486,311.199 833,313C832.65,313.286 832.212,313.445 831.76,313.45C830.98,313.36 830.5,312.45 830.21,311.63C828.62,307.04 829,301.43 826.07,297.77C824.737,296.294 823.126,295.094 821.33,294.24C820.598,293.768 819.772,293.457 818.91,293.33C817.642,293.398 816.423,293.844 815.41,294.61C813.299,296.026 810.957,297.061 808.49,297.67C805.998,298.26 803.368,297.694 801.34,296.13C799.96,294.99 798.95,293.28 797.42,292.39C795.89,291.5 794.29,291.55 792.78,290.94C790.871,290.124 789.434,288.481 788.88,286.48C788.845,286.355 788.818,286.228 788.8,286.1C788.55,287.216 788.578,288.377 788.88,289.48C789.434,291.481 790.871,293.124 792.78,293.94C794.29,294.55 795.99,294.56 797.42,295.39C798.85,296.22 799.96,297.99 801.34,299.13C803.368,300.694 805.998,301.26 808.49,300.67C810.957,300.061 813.299,299.026 815.41,297.61C816.423,296.844 817.642,296.398 818.91,296.33C819.772,296.457 820.598,296.768 821.33,297.24C823.104,298.111 824.69,299.32 826,300.8C828.93,304.46 828.55,310.07 830.14,314.66C830.43,315.49 830.91,316.39 831.69,316.48C832.17,316.482 832.635,316.312 833,316C835.497,314.194 837.158,311.45 837.6,308.4C837.78,307.24 837.8,306.06 838,304.9C838.253,303.705 838.587,302.529 839,301.38C839.974,298.687 840.426,295.832 840.33,292.97C840.31,292.85 840.29,292.71 840.27,292.57Z" style="fill-rule:nonzero;"/>
        </g>
    </g>
    <g transform="matrix(1,0,0,1,-28,-123.74)">
        <path d="M777,372.81L776.32,381.94C776.22,383.18 773.85,412.7 756.37,447.2C741.37,476.79 712.18,515.33 657.07,536.99C652.77,538.69 648.307,540.277 643.68,541.75L638.52,525.55C651.474,521.473 663.953,516.015 675.74,509.27C703.83,493.05 725.67,469.9 740.9,440.11C748.98,424.249 754.739,407.309 758,389.81L695.3,389.81L695.3,372.81L777,372.81Z" style="fill:rgb(108,99,255);fill-rule:nonzero;"/>
    </g>
    <g transform="matrix(1,0,0,1,-28,-123.74)">
        <path d="M650.32,537C705.42,515.34 734.62,476.81 749.61,447.22C767.09,412.72 769.47,383.22 769.56,381.96L770.24,372.83L777.24,372.83L776.56,381.96C776.47,383.2 774.09,412.72 756.61,447.22C741.61,476.81 712.42,515.34 657.32,537C653.02,538.7 648.553,540.29 643.92,541.77L643.24,539.64C645.653,538.78 648.013,537.9 650.32,537Z" style="fill:white;fill-opacity:0.1;fill-rule:nonzero;"/>
    </g>
    <g transform="matrix(1,0,0,1,-28,-123.74)">
        <path d="M540,525.55L534.84,541.75C530.207,540.27 525.74,538.68 521.44,536.98C466.34,515.32 437.14,476.79 422.15,447.2C404.67,412.7 402.29,383.2 402.2,381.94L401.52,372.81L483.18,372.81L483.18,389.81L420.47,389.81C423.748,407.311 429.524,424.251 437.62,440.11C452.85,469.9 474.68,493.05 502.77,509.26C514.558,516.012 527.041,521.474 540,525.55Z" style="fill:rgb(108,99,255);fill-rule:nonzero;"/>
    </g>
    <g transform="matrix(1,0,0,1,-28,-123.74)">
        <path d="M528.18,537C473.08,515.34 443.88,476.81 428.89,447.22C411.41,412.72 409.03,383.22 408.94,381.96L408.26,372.83L401.26,372.83L401.94,381.96C402.03,383.2 404.41,412.72 421.89,447.22C436.89,476.81 466.08,515.34 521.18,537C525.48,538.7 529.947,540.29 534.58,541.77L535.26,539.64C532.853,538.78 530.493,537.9 528.18,537Z" style="fill:white;fill-opacity:0.1;fill-rule:nonzero;"/>
    </g>
    <g transform="matrix(1,0,0,1,-28,-123.74)">
        <path d="M683.59,682.15L683.59,773.82L494.92,773.82L494.92,682.15L500.92,674.15C562.06,652.45 574.45,595.86 576.92,573.47C577.288,570.376 577.498,567.265 577.55,564.15L600.88,564.15C600.932,567.265 601.142,570.376 601.51,573.47C604.02,595.86 616.41,652.47 677.51,674.15L683.59,682.15Z" style="fill:rgb(108,99,255);fill-rule:nonzero;"/>
    </g>
    <rect x="466.92" y="558.41" width="188.67" height="11.5" style="fill-opacity:0.1;"/>
    <g transform="matrix(1,0,0,1,-28,-123.74)">
        <path d="M510.92,674.15C572.06,652.45 584.45,595.86 586.92,573.47C587.288,570.376 587.498,567.265 587.55,564.15L577.55,564.15C577.498,567.265 577.288,570.376 576.92,573.47C574.41,595.86 562.02,652.47 500.92,674.15L494.92,682.15L494.92,773.82L504.92,773.82L504.92,682.15L510.92,674.15Z" style="fill:white;fill-opacity:0.1;fill-rule:nonzero;"/>
    </g>
    <g transform="matrix(1,0,0,1,-28,-123.74)">
        <path d="M466.26,372.81L483.18,372.81L483.18,389.81L467.76,389.81C467.153,384.21 466.653,378.543 466.26,372.81Z" style="fill-opacity:0.1;fill-rule:nonzero;"/>
    </g>
    <g transform="matrix(1,0,0,1,-28,-123.74)">
        <path d="M540,525.55L534.84,541.75C530.207,540.27 525.74,538.68 521.44,536.98C514.367,528.342 508.116,519.062 502.77,509.26C514.558,516.012 527.041,521.474 540,525.55Z" style="fill-opacity:0.1;fill-rule:nonzero;"/>
    </g>
    <g transform="matrix(1,0,0,1,-28,-123.74)">
        <path d="M638.51,525.55C651.464,521.473 663.943,516.015 675.73,509.27C670.381,519.073 664.131,528.356 657.06,537C652.76,538.7 648.297,540.287 643.67,541.76L638.51,525.55Z" style="fill-opacity:0.1;fill-rule:nonzero;"/>
    </g>
    <g transform="matrix(1,0,0,1,-28,-123.74)">
        <path d="M712.24,372.81C711.847,378.543 711.347,384.21 710.74,389.81L695.33,389.81L695.33,372.81L712.24,372.81Z" style="fill-opacity:0.1;fill-rule:nonzero;"/>
    </g>
    <g transform="matrix(1,0,0,1,-28,-123.74)">
        <path d="M601.55,573.47C593.429,575.043 585.081,575.043 576.96,573.47C577.328,570.376 577.538,567.265 577.59,564.15L600.92,564.15C600.972,567.265 601.182,570.376 601.55,573.47Z" style="fill-opacity:0.1;fill-rule:nonzero;"/>
    </g>
    <g transform="matrix(1,0,0,1,-28,-123.74)">
        <path d="M468.26,344.65C468.69,470.71 522.69,572.65 589.26,572.65C655.83,572.65 709.82,470.71 710.26,344.65L468.26,344.65Z" style="fill:rgb(108,99,255);fill-rule:nonzero;"/>
    </g>
    <g transform="matrix(1,0,0,1,-28,-123.74)">
        <path d="M489.76,344.65L468.26,344.65C468.69,470.71 522.69,572.65 589.26,572.65C592.862,572.643 596.458,572.339 600.01,571.74C538.47,561.46 490.17,463.85 489.76,344.65Z" style="fill:white;fill-opacity:0.1;fill-rule:nonzero;"/>
    </g>
    <rect x="497.09" y="593.5" width="128.33" height="33" style="fill:rgb(63,61,86);"/>
    <path d="M503.09,598L625.42,598L625.42,593.5L497.09,593.5L497.09,626.5L503.09,626.5L503.09,598Z" style="fill:white;fill-opacity:0.1;fill-rule:nonzero;"/>
    <g transform="matrix(1,0,0,1,-28,-123.74)">
        <path d="M399.82,466.36C397.51,465.59 383.91,454.83 382.88,449.96C381.85,445.09 390.07,399.72 390.07,399.72C390.07,399.72 389.31,399.72 388.07,399.57L388.07,398.84L389.76,339.24C389.76,339.24 396.69,299.24 383.6,301.57C370.51,303.9 378.72,339.24 378.72,339.24C378.72,339.24 377.23,357.18 376.18,362.56C375.18,367.75 370.6,388.89 373.72,395.46C373.834,395.693 373.961,395.92 374.1,396.14C374.239,396.36 374.62,418.69 368.97,421.77C363.58,424.7 361.34,439.45 361.15,440.77L360.86,440.65C359.251,439.643 357.838,438.352 356.69,436.84C356.57,436.69 356.48,436.53 356.37,436.37C363.959,427.832 363.7,414.731 355.78,406.5C353.995,404.646 351.9,403.116 349.59,401.98C349.523,400.069 349.07,398.192 348.26,396.46C345.66,390.9 331.26,383.63 321.03,383.46C316.31,383.32 312.44,384.66 311.03,388.35C310.31,390.22 310.53,392.35 310.23,394.29C309.63,398.29 307.06,401.42 303.76,403.91C302.427,402.422 300.987,401.035 299.45,399.76C296.11,397.2 289.45,388.76 289.45,388.76C289.45,388.76 268.66,367.23 267.12,361.33C265.58,355.43 244.81,320 240.19,326.17C235.57,332.34 256.1,359.23 256.1,359.23C256.1,359.23 260,369 263,372.3C266,375.6 289,409 289,409L290.1,411.28C285.24,413.84 280.8,417.1 279.23,422.18C276.93,429.66 281.96,437.18 285.44,444.18C292.22,457.84 293.19,475.26 284.44,487.74C276.6,498.76 263,504 250.27,508.58C256.417,513.407 264.057,515.943 271.87,515.75C268.93,524.27 258.51,527.09 249.63,528.67C254.29,533.15 260.96,534.78 267.36,535.77C270.495,536.304 273.671,536.555 276.85,536.52L277.63,536.52L278.41,536.46C279.494,536.388 280.573,536.251 281.64,536.05C286.26,535.11 290.75,532.59 293.11,528.51C295.11,525.02 295.81,520.26 299.44,518.51C300.385,518.083 301.404,517.842 302.44,517.8L302.33,517.8L304.39,517.8L319.52,517.95L321.45,517.95C325.72,517.85 330.28,517.11 332.45,513.58C333.343,511.866 333.812,509.963 333.82,508.03C334.14,503.24 333.82,498.31 333.95,493.48C335.24,502.27 336.59,515.97 333.38,521.03C330.772,524.864 327.611,528.291 324,531.2C323.092,531.963 322.261,532.814 321.52,533.74C321.03,534.09 320.74,534.28 320.74,534.28L320.43,535.21C319.29,536.939 318.464,538.855 317.99,540.87C317.815,541.388 317.751,541.936 317.8,542.48C318.15,543.19 315.3,546.12 316.13,547.35C309.01,555.7 307.66,568.35 307.66,568.35L294.66,588.09C287.98,605.64 277.98,607.44 277.98,607.44C277.98,607.44 254.49,591.68 253.85,590.91C253.21,590.14 244.23,586.29 244.23,586.29C243.171,584.433 241.555,582.957 239.61,582.07C236.53,580.79 236.27,576.07 236.27,576.07C235.89,564.92 229.34,564.07 229.34,564.07C224.06,563.62 220.03,564.56 216.93,566.28L215.99,566.35C211.45,566.72 205.99,567.13 199.99,567.53C183.3,568.63 179.33,579.44 179.33,579.44C179.33,579.44 177.28,581.75 179.97,584.25C182.66,586.75 199.88,584.25 200.61,584.19C199.298,584.332 197.97,584.241 196.69,583.92C199.4,583.82 203.13,583.72 206.31,583.72L207.08,583.72C206.88,585.406 206.783,587.102 206.79,588.8C206.79,592 215.64,594.05 215.64,594.05L242.59,618.05C242.59,618.05 259.53,625.62 270.31,636.51C281.09,647.4 290.62,638 290.62,638C302.03,635.18 334.86,595.49 334.89,595.45C334.89,596.61 335.58,635.21 336.89,642.96C336.942,643.353 337.039,643.739 337.18,644.11C338.72,647.44 336.66,656.54 335.77,660.38C335.202,663.594 334.984,666.859 335.12,670.12C335.256,673.381 322.81,717.12 323.83,721.25C324.85,725.38 317.16,744.57 317.16,744.57L317.16,760.57L318.5,760.5C318.326,760.758 318.165,761.025 318.02,761.3L317.93,761.47C317.93,761.47 326.14,763.26 331.66,762.75C337.18,762.24 346.66,767 346.66,767C346.66,767 349.87,768.52 359.75,769.16C369.63,769.8 369.63,764.8 369.63,764.8C368.5,757.99 352.89,755.71 352.41,755.64C351.15,754.85 349.97,753.99 349,753.25L348.8,753.09C348.865,752.94 348.922,752.786 348.97,752.63C350.64,745.83 341.4,742.88 341.4,742.88L341.4,741.22C347.4,738.14 348.59,717 348.59,717C348.59,717 357.59,690.86 358.85,686.5C360.11,682.14 358.85,675.61 358.85,675.61L359.75,669.97C359.75,669.97 361.68,666.13 361.68,665.36C361.93,663.409 362.681,661.555 363.86,659.98C365.27,658.31 362.32,654.34 362.32,654.34L364.89,647.68L364.89,640.37L370.89,613.85C370.89,613.85 377.18,582.96 375,572.85C372.82,562.74 377.57,557.6 377.57,557.6C377.142,557.825 376.701,558.025 376.25,558.2C376.851,556.812 377.368,555.389 377.8,553.94L391.3,555.61L391.3,555.81L396.17,555.81C396.17,555.81 394.63,536.81 394.63,529.15C394.63,521.49 399.82,494 399.82,494C399.82,494 402.13,467.13 399.82,466.36ZM339.89,444.18C339.89,444.93 339.82,445.71 339.77,446.51L339.5,446.92L339,446.5L338.39,447.45L338.21,447.54C336.89,446.86 336.21,442.97 335.26,443.81L335.13,443.92C334.92,443.68 334.71,443.61 334.49,443.81L334.29,443.98L334.29,443.09C336.119,443.561 338.001,443.799 339.89,443.8C339.9,443.93 339.89,444.06 339.89,444.18ZM384.79,532.66L385.08,532.66L384.6,533.92C384.66,533.5 384.72,533.09 384.79,532.66ZM335.5,759.43L333.66,758.97L334.66,758.8L335.59,759.41L335.7,759.49L335.5,759.43ZM354.3,756.74C353.69,756.42 353.07,756.05 352.47,755.67C352.67,755.78 353.46,756.19 354.3,756.74Z" style="fill:url(#_Linear2);fill-rule:nonzero;"/>
    </g>
    <path d="M363.43,390.03L351.32,421.59L354.26,421.59L342.87,430.67L363.43,433.23L363.43,390.03Z" style="fill:rgb(248,109,112);fill-rule:nonzero;"/>
    <path d="M363.43,390.03L351.32,421.59L348.27,420.77L342.87,430.67L363.43,433.23L363.43,390.03Z" style="fill-opacity:0.1;fill-rule:nonzero;"/>
    <path d="M344.44,410.22L363.43,410.22L370.4,352.87L344.44,352.87L344.44,410.22Z" style="fill:rgb(248,109,112);fill-rule:nonzero;"/>
    <path d="M344.44,410.22L363.43,410.22L370.4,352.87L344.44,352.87L344.44,410.22Z" style="fill-opacity:0.1;fill-rule:nonzero;"/>
    <g transform="matrix(1,0,0,1,-28,-123.74)">
        <path d="M335.35,490.19L339.45,489.5L348.87,487.9C348.87,487.9 377.16,481.52 383,481C386.538,480.533 389.988,479.549 393.24,478.08C394.77,477.42 395.74,476.92 395.74,476.92L385.55,458.31L369.74,446.59C369.74,446.59 359.74,444.46 355.51,438.64C353.594,436.098 353.099,432.747 354.2,429.76C356.78,421.76 338.79,437.41 338.79,437.41C338.79,437.41 338.96,441.16 338.79,445.94C338.79,446.88 338.7,447.86 338.63,448.86C338.63,449.52 338.54,450.18 338.47,450.86C338.03,455.61 337.13,460.5 335.35,463.42C331,470.56 335.35,490.19 335.35,490.19Z" style="fill:rgb(251,190,190);fill-rule:nonzero;"/>
    </g>
    <g transform="matrix(1,0,0,1,-28,-123.74)">
        <path d="M338.79,446.34L339.19,446.34C339.91,446.34 340.49,444.81 341.19,444.74C346.82,444.2 351.96,443.02 355.53,439.03C353.619,436.49 353.125,433.144 354.22,430.16C356.8,422.16 338.81,437.8 338.81,437.8C338.81,437.8 339,441.56 338.79,446.34Z" style="fill-opacity:0.1;fill-rule:nonzero;"/>
    </g>
    <g transform="matrix(1,0,0,1,-28,-123.74)">
        <path d="M316.89,423.66C316.89,423.663 316.89,423.667 316.89,423.67C316.89,435.689 326.781,445.58 338.8,445.58C338.803,445.58 338.807,445.58 338.81,445.58C339.53,445.58 340.24,445.58 340.95,445.48C352.116,444.385 360.73,434.884 360.73,423.665C360.73,411.64 350.835,401.745 338.81,401.745C326.787,401.745 316.893,411.637 316.89,423.66Z" style="fill:rgb(251,190,190);fill-rule:nonzero;"/>
    </g>
    <g transform="matrix(1,0,0,1,-28,-123.74)">
        <path d="M310.16,390.39C309.44,392.25 309.66,394.33 309.37,396.3C308.3,403.41 301.07,407.67 294.53,410.65C287.99,413.63 280.61,417.16 278.53,424.03C276.25,431.46 281.23,438.91 284.69,445.88C291.43,459.46 292.39,476.78 283.69,489.2C275.96,500.2 262.49,505.42 249.81,510C255.911,514.8 263.499,517.326 271.26,517.14C268.35,525.61 258,528.42 249.18,529.98C253.81,534.44 260.44,536.06 266.79,537.04C271.42,537.76 276.17,538.23 280.79,537.3C285.41,536.37 289.79,533.86 292.17,529.8C294.17,526.33 294.85,521.6 298.46,519.85C300.089,519.209 301.845,518.952 303.59,519.1L318.59,519.26C323.26,519.26 328.79,518.9 331.2,514.91C332.089,513.206 332.555,511.312 332.56,509.39C333.21,499.55 331.32,489.15 335.37,480.17C336.59,477.46 328.76,473.17 329.58,470.3C332.4,460.43 333.11,452.66 333.08,442.39C333.08,434.44 338.25,427.59 342.52,420.88C346.79,414.17 350.36,405.7 346.99,398.5C343.19,390.47 314.65,378.8 310.16,390.39Z" style="fill:rgb(63,61,86);fill-rule:nonzero;"/>
    </g>
    <g transform="matrix(1,0,0,1,-28,-123.74)">
        <path d="M330.13,756.55L333.95,759.08L334.54,759.47L334.65,759.54L339.18,762.54L349.76,764.32L359.06,763.68C359.06,763.68 361.74,758.08 357.53,758.21C356.182,758.141 354.867,757.761 353.69,757.1L353.11,756.81C352.5,756.49 351.89,756.13 351.29,755.75C350.04,754.96 348.86,754.1 347.91,753.37C346.51,752.29 345.58,751.47 345.58,751.47L330.13,756.55Z" style="fill:rgb(251,190,190);fill-rule:nonzero;"/>
    </g>
    <g transform="matrix(1,0,0,1,-28,-123.74)">
        <path d="M334,759.08L334.59,759.47L334.7,759.54L339.23,762.54L349.81,764.32L359.11,763.68C359.11,763.68 361.79,758.08 357.58,758.21C356.232,758.141 354.917,757.761 353.74,757.1C354.48,757.68 355.1,758.31 355.16,758.84C355.33,760.27 348.28,762.84 348.28,762.84L338.34,760.21C338.34,760.21 336.65,759.73 334.34,759.13L334.12,759.07L334,759.08Z" style="fill-opacity:0.1;fill-rule:nonzero;"/>
    </g>
    <g transform="matrix(1,0,0,1,-28,-123.74)">
        <path d="M317,761.52C317,761.52 325.15,763.3 330.63,762.79C336.11,762.28 345.55,767 345.55,767C345.55,767 348.74,768.5 358.55,769.14C368.36,769.78 368.36,764.8 368.36,764.8C367.24,758.03 351.74,755.8 351.26,755.7C351.45,755.8 352.26,756.21 353.08,756.76C354.18,757.48 355.37,758.42 355.46,759.18C355.63,760.6 348.58,763.18 348.58,763.18L338.64,760.56C338.64,760.56 336.95,760.07 334.64,759.47L334.42,759.47C330.995,758.537 327.515,757.819 324,757.32C319.72,756.86 317.53,760.5 317.08,761.32C317.047,761.384 317.021,761.451 317,761.52Z" style="fill:rgb(63,61,86);fill-rule:nonzero;"/>
    </g>
    <g transform="matrix(1,0,0,1,-28,-123.74)">
        <path d="M188.54,581.69L192.87,585.01C192.87,585.01 194.13,584.95 196.01,584.89L196.61,584.89C199.3,584.79 203.01,584.69 206.16,584.69C208.196,584.598 210.237,584.712 212.25,585.03C214.41,585.79 218.25,572.67 218.25,572.67L213.91,571.67L212.47,571.33L211.47,571.09L207.94,570.26L197.24,571.48L189.72,576.32L188.54,581.69Z" style="fill:rgb(251,190,190);fill-rule:nonzero;"/>
    </g>
    <g transform="matrix(1,0,0,1,-28,-123.74)">
        <path d="M188.54,581.69L192.87,585.01C192.87,585.01 194.13,584.95 196.01,584.89C195.148,584.557 194.436,583.92 194.01,583.1C191.21,575.33 205.1,572.01 205.1,572.01L211.57,571.73L212.83,571.67L213.83,571.67L212.39,571.33L211.39,571.09L207.86,570.26L197.16,571.48L189.64,576.32L188.54,581.69Z" style="fill-opacity:0.1;fill-rule:nonzero;"/>
    </g>
    <g transform="matrix(1,0,0,1,-28,-123.74)">
        <path d="M180,585.2C182.62,587.62 199.78,585.2 200.5,585.14C199.198,585.287 197.88,585.195 196.61,584.87C195.338,584.642 194.234,583.851 193.61,582.72C190.81,574.94 204.7,571.63 204.7,571.63L211.17,571.35L212.42,571.29L228.15,570.61L228.91,566.28C228.91,566.28 223.8,566.76 215.78,567.4C211.27,567.77 205.78,568.18 199.85,568.57C183.28,569.67 179.34,580.42 179.34,580.42C179.34,580.42 177.33,582.72 180,585.2Z" style="fill:rgb(63,61,86);fill-rule:nonzero;"/>
    </g>
    <g transform="matrix(1,0,0,1,-28,-123.74)">
        <path d="M372.45,397.5C372.556,397.737 372.684,397.965 372.83,398.18L376.65,403.78L386.59,404.78L386.7,400.84L388.37,341.56C388.37,341.56 395.25,301.8 382.25,304.09C369.25,306.38 377.41,341.56 377.41,341.56C377.41,341.56 375.93,359.4 374.89,364.76C373.88,369.94 369.35,391 372.45,397.5Z" style="fill:rgb(251,190,190);fill-rule:nonzero;"/>
    </g>
    <g transform="matrix(1,0,0,1,-28,-123.74)">
        <path d="M350.14,544.74L352.97,549.58L359.3,560.41C359.3,560.41 370.78,564.62 373.72,561.41C375.33,559.66 377.07,553.55 378.29,548.41C379.29,544.25 379.96,540.74 379.96,540.74L350.14,544.74Z" style="fill:rgb(251,190,190);fill-rule:nonzero;"/>
    </g>
    <g transform="matrix(1,0,0,1,-28,-123.74)">
        <path d="M350.14,544.74L352.97,549.58C353.147,549.427 353.308,549.256 353.45,549.07C356.65,544.99 370.74,548.2 378.29,548.46C379.29,544.3 379.96,540.79 379.96,540.79L350.14,544.74Z" style="fill-opacity:0.1;fill-rule:nonzero;"/>
    </g>
    <g transform="matrix(1,0,0,1,-28,-123.74)">
        <path d="M206.16,584.67C208.196,584.578 210.237,584.692 212.25,585.01C214.41,585.77 218.25,572.65 218.25,572.65L212.47,571.29L228.2,570.61L228.96,566.28C228.96,566.28 223.85,566.76 215.83,567.4C214.173,568.354 212.694,569.589 211.46,571.05L211.22,571.35C207.87,575.46 206.63,580.76 206.16,584.67Z" style="fill-opacity:0.1;fill-rule:nonzero;"/>
    </g>
    <g transform="matrix(1,0,0,1,-28,-123.74)">
        <path d="M330.13,756.55L334.54,759.47C341.12,758.28 347.13,756.41 347.84,753.47C347.843,753.423 347.843,753.377 347.84,753.33C346.44,752.25 345.51,751.43 345.51,751.43L330.13,756.55Z" style="fill-opacity:0.1;fill-rule:nonzero;"/>
    </g>
    <g transform="matrix(1,0,0,1,-28,-123.74)">
        <path d="M317.09,761.35C322.901,761.061 328.69,760.44 334.43,759.49C331.002,758.55 327.519,757.825 324,757.32C319.73,756.86 317.54,760.5 317.09,761.35Z" style="fill-opacity:0.1;fill-rule:nonzero;"/>
    </g>
    <g transform="matrix(1,0,0,1,-28,-123.74)">
        <path d="M206.64,589.72C206.64,592.91 215.43,594.95 215.43,594.95L242.2,618.78C242.2,618.78 259.02,626.3 269.72,637.13C280.42,647.96 289.86,638.66 289.86,638.66C301.2,635.86 333.86,596.35 333.86,596.35C333.86,596.35 334.62,641.47 336.15,644.78C337.68,648.09 335.64,657.14 334.75,660.97C334.188,664.164 333.974,667.41 334.11,670.65C334.246,673.89 321.88,717.42 322.9,721.5C323.92,725.58 316.27,744.7 316.27,744.7L316.27,760.63C316.27,760.63 346.22,759.48 347.87,752.73C349.52,745.98 340.36,743.04 340.36,743.04L340.36,741.38C346.36,738.32 347.49,717.3 347.49,717.3C347.49,717.3 356.42,691.3 357.69,686.97C358.96,682.64 357.69,676.13 357.69,676.13L358.58,670.53C358.58,670.53 360.49,666.7 360.49,665.94C360.74,663.999 361.487,662.156 362.66,660.59C364.06,658.93 361.13,654.98 361.13,654.98L363.68,648.35L363.68,641.09L369.68,614.71C369.68,614.71 375.93,583.99 373.76,573.92C371.59,563.85 376.31,558.76 376.31,558.76C366.08,564.12 360.92,552.19 359.23,547.06C358.8,545.74 358.59,544.86 358.59,544.86C358.59,544.86 344.54,539.68 331.46,540.92C328.804,541.135 326.186,541.69 323.67,542.57C309.14,547.8 306.85,569.46 306.85,569.46L293.98,589.09C287.35,606.55 277.41,608.33 277.41,608.33C277.41,608.33 254.09,592.66 253.41,591.89C252.73,591.12 243.85,587.3 243.85,587.3C242.8,585.452 241.194,583.982 239.26,583.1C236.2,581.82 235.95,577.1 235.95,577.1C235.57,566.01 229.07,565.1 229.07,565.1C206.51,563.22 206.64,586.54 206.64,589.72Z" style="fill:rgb(63,61,86);fill-rule:nonzero;"/>
    </g>
    <g transform="matrix(-1,7.65714e-16,-7.65714e-16,-1,658.52,888.38)">
        <rect x="336.38" y="484.71" width="13.76" height="42.69" style="fill:rgb(248,109,112);"/>
    </g>
    <g transform="matrix(-1,7.65714e-16,-7.65714e-16,-1,658.52,888.38)">
        <rect x="336.38" y="484.71" width="13.76" height="42.69" style="fill-opacity:0.1;"/>
    </g>
    <g transform="matrix(1,0,0,1,-28,-123.74)">
        <path d="M372.44,397.41C372.438,397.44 372.438,397.47 372.44,397.5C372.546,397.737 372.674,397.965 372.82,398.18L376.64,403.78L386.58,404.78L386.69,400.84C383.59,400.6 376.53,399.75 372.44,397.41Z" style="fill-opacity:0.1;fill-rule:nonzero;"/>
    </g>
    <g transform="matrix(1,0,0,1,-28,-123.74)">
        <path d="M372.83,398.18C372.83,398.18 373.34,420.6 367.73,423.66C362.12,426.72 359.94,442.66 359.94,442.66C359.94,442.66 376.94,453.84 380.73,458.76C384.52,463.68 393.22,475.4 391.43,478.2C389.64,481 395.77,493.75 395.77,493.75C395.77,493.75 384.55,516.69 387.1,525.36C389.65,534.03 389.9,556.96 389.9,556.96L394.75,556.96C394.75,556.96 393.22,538.1 393.22,530.45C393.22,522.8 398.31,495.53 398.31,495.53C398.31,495.53 400.61,468.77 398.31,468.01C396.01,467.25 382.51,456.54 381.49,451.69C380.47,446.84 388.63,401.69 388.63,401.69C388.63,401.69 378.18,401.24 372.83,398.18Z" style="fill:rgb(248,109,112);fill-rule:nonzero;"/>
    </g>
    <g transform="matrix(1,0,0,1,-28,-123.74)">
        <path d="M336.12,480.76C336.585,483.88 337.721,486.862 339.45,489.5L348.87,487.9C348.87,487.9 377.16,481.52 383,481C386.538,480.533 389.988,479.549 393.24,478.08C390.999,470.138 386.623,462.96 380.59,457.33L377,454C371.71,449.089 365.579,445.169 358.9,442.43C359.32,442.78 389,468.12 382.5,473.09C376,478.06 358.5,465.96 358.5,465.96L338.6,448.86L337.88,448.24L336.73,450.03C337.315,450.271 337.886,450.544 338.44,450.85C345.22,454.571 350.256,460.831 352.44,468.25C356.53,482 336.12,480.76 336.12,480.76Z" style="fill-opacity:0.1;fill-rule:nonzero;"/>
    </g>
    <g transform="matrix(1,0,0,1,-28,-123.74)">
        <path d="M330,544.48C330,544.48 348.86,554.93 353.44,549.07C354.44,547.78 356.55,547.22 359.18,547.07C358.75,545.75 358.54,544.87 358.54,544.87C358.54,544.87 344.49,539.69 331.41,540.93C330.55,543.09 330,544.48 330,544.48Z" style="fill:rgb(68,64,83);fill-rule:nonzero;"/>
    </g>
    <g transform="matrix(1,0,0,1,-28,-123.74)">
        <path d="M338.68,448.26L359.3,466C359.3,466 376.73,478.14 383.3,473.13C389.87,468.12 359.69,442.46 359.69,442.46C366.354,445.208 372.479,449.115 377.78,454L381.37,457.33C390.81,466.08 392.94,466.08 393.26,478.94C393.34,482.11 392.26,486.66 391.43,487.48C388.37,490.48 386.23,512.27 386.7,514.82C387.17,517.37 381,539.38 383,545.5C385,551.62 358,542.44 353.43,548.31C348.86,554.18 330,543.72 330,543.72C330,543.72 340.45,516.95 343,515.17C345.55,513.39 348.61,499.62 343,493.25C337.39,486.88 336.89,480.76 336.89,480.76C336.89,480.76 357.29,482.02 353.2,468.27C350.873,460.21 345.143,453.552 337.52,450.05L338.68,448.26Z" style="fill:rgb(232,232,240);fill-rule:nonzero;"/>
    </g>
    <g transform="matrix(1,0,0,1,-28,-123.74)">
        <path d="M366.2,493.38C366.2,493.38 358.29,508.29 348.06,512.16C347.73,512.28 347.41,512.39 347.06,512.49C336.38,515.74 367,498 366.2,493.38Z" style="fill-opacity:0.1;fill-rule:nonzero;"/>
    </g>
    <g transform="matrix(1,0,0,1,-28,-123.74)">
        <path d="M255.58,361.47C255.58,361.47 259.4,371.16 262.46,374.47C265.52,377.78 288.2,410.92 288.2,410.92L290.12,414.92L291.77,418.33L306.3,416.8L307.3,410.94L306.74,410.26C305.28,408.51 301.3,403.81 298.63,401.76C295.32,399.22 288.69,390.81 288.69,390.81C288.69,390.81 268.05,369.39 266.52,363.53C264.99,357.67 244.34,322.53 239.76,328.61C235.18,334.69 255.58,361.47 255.58,361.47Z" style="fill:rgb(251,190,190);fill-rule:nonzero;"/>
    </g>
    <g opacity="0.1">
        <g transform="matrix(1,0,0,1,-28,-123.74)">
            <path d="M297.74,519.1C295.996,518.949 294.24,519.202 292.61,519.84C289.01,521.59 288.33,526.32 286.33,529.79C283.99,533.85 279.53,536.36 274.94,537.29C274.028,537.467 273.106,537.594 272.18,537.67C275.103,537.954 278.052,537.827 280.94,537.29C285.53,536.36 289.99,533.85 292.33,529.79C294.33,526.32 295.01,521.59 298.61,519.84C299.555,519.415 300.574,519.177 301.61,519.14L297.74,519.1Z" style="fill-rule:nonzero;"/>
        </g>
        <g transform="matrix(1,0,0,1,-28,-123.74)">
            <path d="M333.26,442.39C333.26,434.44 338.43,427.59 342.69,420.88C346.95,414.17 350.53,405.7 347.16,398.5C344.28,392.35 326.92,384.1 316.9,385.73C326.71,387 338.8,393.46 341.16,398.5C344.53,405.7 340.95,414.17 336.69,420.88C332.43,427.59 327.24,434.44 327.26,442.39C327.26,452.65 326.57,460.39 323.75,470.3C322.94,473.15 330.75,477.46 329.55,480.16C325.49,489.16 327.39,499.54 326.74,509.38C326.726,511.302 326.257,513.194 325.37,514.9C323.37,518.19 319.27,519.04 315.28,519.22L318.77,519.22C323.43,519.22 328.96,518.86 331.37,514.87C332.257,513.164 332.726,511.272 332.74,509.35C333.39,499.51 331.49,489.12 335.55,480.13C336.77,477.43 328.94,473.13 329.75,470.27C332.57,460.43 333.28,452.65 333.26,442.39Z" style="fill-rule:nonzero;"/>
        </g>
    </g>
    <g transform="matrix(1,0,0,1,-28,-123.74)">
        <path d="M290.12,414.9L291.77,418.31L306.3,416.78L307.3,410.92L306.74,410.24C305.19,411 293.58,416.59 290.12,414.9Z" style="fill-opacity:0.1;fill-rule:nonzero;"/>
    </g>
    <g transform="matrix(1,0,0,1,-28,-123.74)">
        <path d="M343.77,453.23C343.77,453.23 340.2,447.63 338.16,449.15C336.12,450.67 335.33,444.56 334.16,445.58C332.99,446.6 329.58,449.44 328.16,445.47C327.05,442.31 314.97,422.32 310.07,414.28C308.81,412.2 308.02,410.92 308.02,410.92C308.02,410.92 294.26,417.8 290.95,415.51L290.95,420.35L293.75,420.61L308.75,448.61C308.75,448.61 313.47,456.12 313.15,458.74C312.83,461.36 319.2,472.83 320.22,473.59C321.24,474.35 332.22,487.1 332.22,487.1C332.22,487.1 337.83,514.63 332.98,522.28C328.13,529.93 319.73,535.53 319.73,535.53C319.73,535.53 317.2,542.92 317.57,543.69C317.94,544.46 314.63,547.77 316.16,548.79C317.69,549.81 319.73,556.94 319.73,556.94C319.73,556.94 326.87,545.47 330.73,543.69C334.59,541.91 339.53,518.45 339.53,518.45C339.53,518.45 340.94,504.63 341.05,495.71C341.16,486.79 340.71,453.23 343.77,453.23Z" style="fill-opacity:0.1;fill-rule:nonzero;"/>
    </g>
    <g transform="matrix(1,0,0,1,-28,-123.74)">
        <path d="M343,453.23C343,453.23 339.44,447.63 337.4,449.15C335.36,450.67 334.56,444.56 333.4,445.58C332.24,446.6 328.83,449.44 327.4,445.47C326.28,442.31 314.2,422.32 309.31,414.28L307.26,410.92C307.26,410.92 293.5,417.8 290.18,415.51L290.18,420.35L292.99,420.61L307.99,448.61C307.99,448.61 312.72,456.12 312.39,458.74C312.06,461.36 318.39,472.83 319.46,473.59C320.53,474.35 331.46,487.1 331.46,487.1C331.46,487.1 337.07,514.63 332.23,522.28C329.673,526.122 326.563,529.566 323,532.5C320.008,534.968 317.901,538.347 317,542.12C316.826,542.634 316.765,543.18 316.82,543.72C317.19,544.48 313.88,547.8 315.41,548.82C316.94,549.84 319,557 319,557C319,557 326.14,545.53 330,543.75C333.86,541.97 338.81,518.51 338.81,518.51C338.81,518.51 340.21,504.69 340.33,495.77C340.45,486.85 340,453.23 343,453.23Z" style="fill:rgb(248,109,112);fill-rule:nonzero;"/>
    </g>
    <g transform="matrix(1,0,0,1,-28,-123.74)">
        <path d="M308.08,569.21C308.08,569.21 318.79,571.21 323.08,574.3C327.37,577.39 306.77,569.46 306.77,569.46L308.08,569.21Z" style="fill-opacity:0.1;fill-rule:nonzero;"/>
    </g>
    <g transform="matrix(1,0,0,1,-28,-123.74)">
        <path d="M333.83,596.35C333.83,596.35 345,605.66 343,614.07C341,622.48 335.84,643.64 335.84,643.64L333.83,596.35Z" style="fill-opacity:0.1;fill-rule:nonzero;"/>
    </g>
    <g transform="matrix(1,0,0,1,-28,-123.74)">
        <path d="M236.14,578.45C236.14,578.45 220.4,580.17 221.42,582.21C222.44,584.25 236.14,580.33 236.14,580.33L236.14,578.45Z" style="fill-opacity:0.1;fill-rule:nonzero;"/>
    </g>
    <g transform="matrix(1,0,0,1,-28,-123.74)">
        <path d="M357,655.87C357,655.87 358,657.14 352.16,655.87C346.32,654.6 350.63,650.68 350.63,650.68L357,655.87Z" style="fill-opacity:0.1;fill-rule:nonzero;"/>
    </g>
    <g transform="matrix(1,0,0,1,-28,-123.74)">
        <path d="M355,673.46C355,673.46 347,674.73 342.71,673.46C338.42,672.19 355,673.46 355,673.46Z" style="fill-opacity:0.1;fill-rule:nonzero;"/>
    </g>
    <g transform="matrix(1,0,0,1,-28,-123.74)">
        <path d="M338.54,742.28C338.54,742.28 337.14,740.75 330.13,743.55C323.12,746.35 320.32,746.48 318.28,745.55C316.24,744.62 338.54,742.28 338.54,742.28Z" style="fill-opacity:0.1;fill-rule:nonzero;"/>
    </g>
    <g transform="matrix(1,0,0,1,-28,-123.74)">
        <path d="M346.32,576.28L336.38,590.11C336.38,590.11 341.73,578 346.32,576.28Z" style="fill-opacity:0.1;fill-rule:nonzero;"/>
    </g>
    <g transform="matrix(1,0,0,1,-28,-123.74)">
        <path d="M327,449.15C327,449.15 326.57,453.74 320.16,455.53C313.75,457.32 312.53,458.77 312.53,458.77" style="fill-opacity:0.1;fill-rule:nonzero;"/>
    </g>
    <g transform="matrix(1,0,0,1,-28,-123.74)">
        <path d="M310.34,415.88C310.34,415.88 301.88,421.88 293.05,420.61" style="fill-opacity:0.1;fill-rule:nonzero;"/>
    </g>
    <g transform="matrix(1,0,0,1,-28,-123.74)">
        <path d="M316.78,544.35C316.78,544.35 319.25,545.9 325.18,539.12" style="fill-opacity:0.1;fill-rule:nonzero;"/>
    </g>
    <g transform="matrix(1,0,0,1,-28,-123.74)">
        <path d="M378.37,472.46C378.61,471.22 377.75,470.07 376.94,469.1L375.28,467.1C374.956,466.691 374.59,466.315 374.19,465.98C373.19,465.21 371.91,464.98 370.87,464.29" style="fill-opacity:0.1;fill-rule:nonzero;"/>
    </g>
    <g transform="matrix(1,0,0,1,-28,-123.74)">
        <path d="M915.29,123.85C915.29,123.85 831.1,118.77 841,177.77C841,177.77 839,188.2 848.48,192.93C848.48,192.93 848.63,188.56 857.12,190.05C860.143,190.551 863.213,190.699 866.27,190.49C870.399,190.205 874.324,188.583 877.45,185.87C880.576,183.157 901.12,176.09 910.32,137.41C910.32,137.41 917.13,128.97 916.86,126.8L902.65,132.87C902.65,132.87 907.51,143.12 903.65,151.64C903.65,151.64 903.19,133.24 900.46,133.64C899.91,133.73 893.08,137.19 893.08,137.19C893.08,137.19 901.43,155.04 895.13,168.02C895.13,168.02 897.52,146.02 890.47,138.48L880.47,144.32C880.47,144.32 890.23,162.76 883.61,177.81C883.61,177.81 885.31,154.73 878.36,145.74L869.3,152.81C869.3,152.81 878.47,170.99 872.88,183.47C872.88,183.47 872.15,156.6 867.34,154.57C867.34,154.57 859.41,161.57 858.2,164.43C858.2,164.43 864.48,177.63 860.58,184.59C860.58,184.59 858.19,166.69 856.23,166.59C856.23,166.59 848.33,178.45 847.51,186.59C847.51,186.59 847.85,174.5 854.32,165.47C854.32,165.47 846.68,166.78 842.22,171.73C842.22,171.73 843.45,163.35 856.27,162.62C856.27,162.62 862.8,153.62 864.54,153.07C864.54,153.07 851.8,152.01 844.07,155.43C844.07,155.43 850.87,147.52 866.88,151.12L875.83,143.81C875.83,143.81 859.05,141.52 851.93,144.05C851.93,144.05 860.12,137.05 878.24,142.15L887.98,136.33C887.98,136.33 873.67,133.25 865.15,134.33C865.15,134.33 874.15,129.48 890.84,134.74L897.84,131.61C897.84,131.61 887.36,129.55 884.29,129.22C881.22,128.89 881.06,128.05 881.06,128.05C887.699,126.943 894.517,127.701 900.75,130.24C906.983,132.779 915.55,124.78 915.29,123.85Z" style="fill:rgb(108,99,255);fill-opacity:0.1;fill-rule:nonzero;"/>
    </g>
    <g transform="matrix(1,0,0,1,-28,-123.74)">
        <path d="M811.45,138.86C811.45,138.86 773.45,136.56 777.9,163.22C777.9,163.22 777.01,167.94 781.27,170.08C781.27,170.08 781.34,168.08 785.18,168.77C786.544,169 787.93,169.067 789.31,168.97C791.176,168.843 792.95,168.109 794.36,166.88C795.77,165.651 805.06,162.47 809.22,144.99C809.22,144.99 812.29,141.17 812.17,140.19L805.75,142.93C805.75,142.93 807.95,147.57 806.22,151.42C806.22,151.42 806.01,143.1 804.78,143.3C804.53,143.3 801.44,144.9 801.44,144.9C801.44,144.9 805.22,152.97 802.37,158.84C802.37,158.84 803.45,148.9 800.26,145.49L795.74,148.13C795.74,148.13 800.16,156.46 797.16,163.26C797.16,163.26 797.93,152.83 794.79,148.77L790.7,152C790.7,152 794.84,160.22 792.32,165.85C792.32,165.85 791.99,153.71 789.81,152.8C789.81,152.8 786.23,155.96 785.68,157.26C785.68,157.26 788.52,163.26 786.76,166.36C786.76,166.36 785.68,158.27 784.76,158.24C784.76,158.24 781.2,163.6 780.82,167.24C780.998,163.843 782.06,160.551 783.9,157.69C781.84,158.08 779.938,159.064 778.43,160.52C776.922,161.976 778.99,156.74 784.78,156.4C784.78,156.4 787.78,152.34 788.52,152.09C788.52,152.09 782.76,151.61 779.27,153.16C779.27,153.16 782.34,149.58 789.58,151.16L793.58,147.86C793.58,147.86 786,146.86 782.78,147.97C782.78,147.97 786.48,144.81 794.67,147.11L799.07,144.48C799.07,144.48 792.61,143.08 788.75,143.59C788.75,143.59 792.82,141.39 800.36,143.77L803.51,142.36C803.51,142.36 798.77,141.42 797.38,141.28C795.99,141.14 795.92,140.75 795.92,140.75C798.922,140.251 802.004,140.597 804.82,141.75C807.636,142.903 811.57,139.28 811.45,138.86Z" style="fill:rgb(108,99,255);fill-opacity:0.1;fill-rule:nonzero;"/>
    </g>
    <ellipse cx="916.19" cy="643.96" rx="40.21" ry="6.8" style="fill:rgb(108,99,255);"/>
    <g transform="matrix(1,0,0,1,-28,-123.74)">
        <path d="M960.82,756.58C962.656,755.085 963.992,753.064 964.65,750.79C965.15,748.5 964.17,745.79 961.97,744.9C959.51,743.96 956.88,745.67 954.89,747.39C952.9,749.11 950.61,751.08 948.01,750.71C950.732,748.237 951.964,744.508 951.25,740.9C951.136,740.164 950.825,739.473 950.35,738.9C948.98,737.44 946.51,738.06 944.87,739.21C939.67,742.87 938.22,749.94 938.19,756.29C937.67,754 938.11,751.61 938.1,749.29C938.09,746.97 937.44,744.29 935.45,743.06C934.223,742.4 932.843,742.076 931.45,742.12C929.12,742.03 926.51,742.27 924.92,743.98C922.92,746.1 923.45,749.66 925.17,751.98C926.89,754.3 929.52,755.79 931.94,757.4C933.876,758.554 935.527,760.13 936.77,762.01C936.92,762.273 937.041,762.551 937.13,762.84L951.79,762.84C955.069,761.17 958.106,759.065 960.82,756.58Z" style="fill:rgb(108,99,255);fill-rule:nonzero;"/>
    </g>
    <defs>
        <linearGradient id="_Linear1" x1="0" y1="0" x2="1" y2="0" gradientUnits="userSpaceOnUse" gradientTransform="matrix(2.46338e-14,-402.3,402.3,2.46338e-14,836.51,628.67)"><stop offset="0" style="stop-color:rgb(128,128,128);stop-opacity:0.25"/><stop offset="0.54" style="stop-color:rgb(128,128,128);stop-opacity:0.12"/><stop offset="1" style="stop-color:rgb(128,128,128);stop-opacity:0.1"/></linearGradient>
        <linearGradient id="_Linear2" x1="0" y1="0" x2="1" y2="0" gradientUnits="userSpaceOnUse" gradientTransform="matrix(222.22,0,0,222.22,178.62,535.35)"><stop offset="0" style="stop-color:rgb(128,128,128);stop-opacity:0.25"/><stop offset="0.54" style="stop-color:rgb(128,128,128);stop-opacity:0.12"/><stop offset="1" style="stop-color:rgb(128,128,128);stop-opacity:0.1"/></linearGradient>
    </defs>
</svg>
